<?xml version="1.0" encoding="UTF-8"?><svg id="uuid-60d2c5ed-e9b9-432a-85de-30472fdcf152" xmlns="http://www.w3.org/2000/svg" xmlns:xlink="http://www.w3.org/1999/xlink" viewBox="0 0 182.83 182.83"><defs><linearGradient id="uuid-0b8ea1a2-b048-4edb-b8e0-4ea6295980f4" x1="13.66" y1="91.41" x2="169.17" y2="91.41" gradientUnits="userSpaceOnUse"><stop offset="0" stop-color="#e1e8f6"/><stop offset=".51" stop-color="#c9d8f0"/><stop offset="1" stop-color="#b0c4e7"/></linearGradient><linearGradient id="uuid-b881ead1-be9f-41bf-b366-dac86596eb1e" x1="13.16" y1="91.32" x2="169.66" y2="91.32" gradientUnits="userSpaceOnUse"><stop offset="0" stop-color="#e71d73" stop-opacity=".7"/><stop offset=".31" stop-color="#2fac66" stop-opacity=".7"/><stop offset=".61" stop-color="#36a9e1" stop-opacity=".7"/><stop offset=".87" stop-color="#fcea10" stop-opacity=".7"/></linearGradient></defs><g id="uuid-b134dd36-d76d-4354-8d6d-6c1267818e54"><g><rect width="182.83" height="182.83" fill="#fff"/><path d="M154.93,84.6c-4.16-.85-8.34-1.56-12.56-2.11-.29-.04-.59-.07-.88-.1,.77-4.21,.76-8.57,.19-12.83-.32-2.59-.91-5.15-1.6-7.67-.73-2.52-1.59-4.96-2.7-7.4l-.26-.58-.64,.06c-2.65,.24-5.2,.69-7.75,1.29-2.53,.63-5.04,1.39-7.45,2.39-2.42,.99-4.75,2.19-6.92,3.64-1.08,.73-2.11,1.53-3.09,2.39-.3,.26-.57,.55-.86,.83-.71-1.09-1.43-2.16-2.17-3.23-2.42-3.48-5.02-6.83-7.7-10.11-2.7-3.28-5.45-6.45-8.4-9.56l-1.37-1.44-1.33,1.48c-2.88,3.2-5.54,6.46-8.16,9.82-2.6,3.36-5.1,6.79-7.44,10.34-.52,.8-1.04,1.61-1.55,2.43-.18-.16-.34-.33-.52-.48-1-.83-2.05-1.6-3.15-2.3-2.21-1.39-4.57-2.53-7.02-3.45-2.44-.94-4.96-1.63-7.51-2.19-2.56-.53-5.12-.91-7.78-1.08l-.64-.04-.25,.59c-1.04,2.47-1.83,4.93-2.49,7.47-.62,2.54-1.13,5.11-1.39,7.71-.44,4.12-.35,8.32,.44,12.37-.57,.08-1.15,.16-1.72,.25-4.2,.67-8.36,1.49-12.49,2.46-4.14,.97-8.22,2.03-12.31,3.34l-1.82,.58,.71,1.78c1.59,3.98,3.32,7.81,5.17,11.63,1.85,3.81,3.82,7.56,5.95,11.23,2.15,3.66,4.45,7.24,6.98,10.69,1.29,1.71,2.59,3.41,4.01,5.03,.69,.83,1.45,1.6,2.17,2.4,.77,.76,1.51,1.55,2.33,2.27,1.59,1.49,3.34,2.84,5.22,4.03,.93,.61,1.94,1.11,2.95,1.62,1.03,.43,2.04,.88,3.11,1.21,2.12,.69,4.33,1.14,6.57,1.29,2.24,.14,4.48-.02,6.66-.43,4.38-.83,8.43-2.7,12.06-5.07,1.81-1.19,3.53-2.52,5.15-3.94,1.62-1.45,3.13-2.92,4.55-4.66l1.03-1.27-1.47-.64c-3.78-1.65-7.77-2.8-11.84-3.33-4.07-.51-8.2-.48-12.22,.17l-1.51,.25c-.5,.1-.99,.21-1.49,.32-1,.19-1.97,.49-2.95,.75-.97,.3-1.93,.61-2.89,.95-.94,.37-1.9,.71-2.81,1.13-1.87,.79-3.63,1.72-5.46,2.52-1.13,.5-2.28,.93-3.46,1.29-.31-.32-.62-.64-.94-.95-.68-.76-1.39-1.48-2.04-2.27-1.34-1.54-2.58-3.18-3.81-4.82-2.41-3.33-4.63-6.82-6.71-10.4-3.82-6.59-7.27-13.5-10.24-20.51,7.3-2.24,14.8-4.12,22.35-5.45,4.1-.7,8.22-1.28,12.35-1.59,3.15-.21,6.33-.3,9.46-.11-.02,.07-.04,.14-.06,.22-.31,1.04-.53,2.11-.77,3.17-.18,1.08-.39,2.15-.46,3.26-.13,1.09-.12,2.21-.11,3.32,.07,1.09,.13,2.19,.31,3.27,.33,2.16,.85,4.32,1.71,6.34,.84,2.03,1.93,3.95,3.26,5.68,2.67,3.46,6.17,6.15,9.97,8.08,3.81,1.92,7.9,3.22,12.08,3.77-2.06-.45-4.05-1.12-5.99-1.9-1.93-.79-3.82-1.69-5.59-2.77-3.54-2.14-6.72-4.89-8.99-8.26-1.14-1.67-2.07-3.48-2.74-5.37-.69-1.89-1.08-3.88-1.28-5.88-.13-1-.12-2.01-.16-3.02,.03-1,.05-1.98,.21-2.98,.09-.99,.33-1.98,.52-2.97,.26-.98,.49-1.96,.82-2.93,.08-.26,.17-.51,.26-.76,.98,.11,1.94,.28,2.9,.45,.98,.23,1.99,.42,2.94,.74,.98,.27,1.89,.66,2.82,1.04,.91,.44,1.84,.87,2.7,1.4,3.51,2.02,6.52,4.89,8.62,8.39,2.11,3.49,3.3,7.54,3.77,11.66,.43,4.13,.27,8.37-.61,12.48,1.17-4.04,1.67-8.3,1.46-12.55-.21-4.24-1.22-8.53-3.29-12.35-1.03-1.91-2.31-3.69-3.8-5.28-1.49-1.6-3.23-2.95-5.06-4.13-.91-.61-1.88-1.1-2.84-1.62-.99-.46-2-.93-3.04-1.26-1.03-.39-2.09-.64-3.14-.93-.84-.17-1.68-.37-2.52-.51,2.58-6.55,6.27-12.73,10.28-18.62,4.3-6.3,9.04-12.39,14.07-18.1,5.18,5.55,10.06,11.49,14.53,17.65,4.34,6.02,8.36,12.36,11.14,19.13-.97,.17-1.94,.42-2.9,.65-1.04,.32-2.1,.59-3.11,1.01-1.03,.36-2.03,.86-3.01,1.35-.95,.54-1.9,1.06-2.79,1.7-1.8,1.23-3.5,2.62-4.94,4.27-1.45,1.63-2.68,3.45-3.66,5.39-1.96,3.88-2.85,8.19-2.95,12.43-.09,4.25,.52,8.5,1.81,12.51-.99-4.09-1.27-8.32-.95-12.46,.36-4.13,1.43-8.21,3.45-11.76,2.01-3.55,4.93-6.5,8.39-8.62,.85-.56,1.76-1.01,2.66-1.48,.92-.41,1.82-.83,2.79-1.12,.94-.35,1.94-.57,2.91-.83,1-.2,1.99-.41,3.01-.55,.08-.01,.17-.02,.25-.03,.67,1.87,1.17,3.78,1.48,5.7,.19,.99,.24,1.97,.31,2.96-.01,1,.03,2-.08,3-.15,1.99-.54,3.97-1.18,5.87-.65,1.9-1.56,3.71-2.66,5.41-2.2,3.42-5.23,6.3-8.6,8.69-1.69,1.19-3.48,2.26-5.34,3.22-1.85,.95-3.76,1.82-5.75,2.49,4.08-1.01,8.01-2.67,11.65-4.85,3.63-2.2,6.96-5.02,9.53-8.52,1.28-1.75,2.35-3.67,3.16-5.7,.8-2.04,1.33-4.19,1.6-6.36,.16-1.09,.19-2.18,.23-3.28-.04-1.1-.07-2.22-.23-3.3-.25-1.93-.67-3.82-1.22-5.66,3.03-.26,6.1-.25,9.16-.13,4.14,.19,8.27,.66,12.39,1.25,7.57,1.12,15.13,2.8,22.49,4.84-2.78,7.09-6.03,14.09-9.67,20.78-1.98,3.64-4.1,7.19-6.42,10.58-1.18,1.68-2.37,3.35-3.67,4.93-.63,.81-1.32,1.55-1.97,2.33-.31,.32-.61,.65-.91,.98-1.19-.33-2.35-.73-3.49-1.2-1.85-.75-3.64-1.63-5.53-2.37-.93-.4-1.89-.71-2.84-1.06-.96-.32-1.93-.61-2.91-.88-.99-.23-1.97-.5-2.97-.67-.5-.09-1-.19-1.5-.28l-1.51-.21c-4.04-.54-8.17-.46-12.22,.16-4.05,.65-8.01,1.9-11.75,3.66l-1.45,.68,1.07,1.24c1.47,1.7,3.02,3.13,4.68,4.53,1.66,1.38,3.41,2.65,5.25,3.8,3.69,2.26,7.8,4.03,12.2,4.74,2.19,.35,4.44,.45,6.67,.25,2.23-.21,4.43-.72,6.53-1.47,1.06-.35,2.06-.83,3.08-1.29,.99-.54,1.99-1.06,2.9-1.7,1.85-1.24,3.56-2.63,5.11-4.17,.8-.74,1.52-1.55,2.27-2.33,.7-.82,1.44-1.61,2.11-2.46,1.38-1.65,2.63-3.39,3.87-5.14,2.43-3.51,4.64-7.16,6.68-10.88,2.04-3.73,3.9-7.53,5.64-11.39,1.74-3.87,3.37-7.74,4.85-11.76l.66-1.8-1.84-.53c-4.13-1.19-8.23-2.14-12.4-3Zm-109.11,45.18c1.9-.66,3.74-1.5,5.61-2.16,3.73-1.38,7.61-2.28,11.53-2.7,3.92-.44,7.88-.25,11.73,.37,3.29,.56,6.49,1.55,9.54,2.87-1.02,1.04-2.13,2.06-3.25,3-1.57,1.3-3.21,2.5-4.94,3.56-3.44,2.12-7.21,3.68-11.1,4.35-1.94,.33-3.91,.44-5.86,.28-1.95-.16-3.87-.59-5.72-1.23-.94-.3-1.83-.72-2.73-1.11-.86-.46-1.72-.89-2.53-1.46-1.65-1.07-3.21-2.33-4.67-3.71-.37-.33-.73-.68-1.08-1.03,1.18-.27,2.34-.62,3.48-1.03Zm21.57-56.95c-1.5,2.95-2.88,5.99-3.96,9.15-3.48-.36-6.97-.36-10.43-.23-3.54,.16-7.06,.52-10.55,1.01-.12-1.5-.17-3.01-.13-4.51,.04-2.55,.3-5.09,.69-7.61,.41-2.51,.95-5,1.65-7.45,.63-2.23,1.36-4.46,2.24-6.57,2.27,.15,4.6,.48,6.87,.9,2.5,.44,4.96,1.08,7.38,1.83,2.41,.78,4.78,1.7,7.04,2.87,1.14,.57,2.23,1.23,3.3,1.92,.21,.14,.4,.29,.6,.43-1.67,2.68-3.25,5.42-4.7,8.24Zm73.74,9.51c-3.8-.46-7.63-.76-11.48-.83-3.35-.04-6.73,.05-10.08,.47-1.22-3.45-2.81-6.72-4.54-9.9-1.37-2.48-2.85-4.9-4.39-7.27,.32-.25,.64-.5,.98-.73,1.05-.72,2.12-1.41,3.24-2.01,2.22-1.23,4.57-2.22,6.96-3.06,2.4-.82,4.84-1.52,7.33-2.03,2.26-.48,4.57-.88,6.84-1.09,.94,2.08,1.73,4.29,2.42,6.5,.77,2.42,1.37,4.9,1.85,7.4,.46,2.5,.79,5.03,.9,7.59,.09,1.65,.07,3.31-.03,4.97Zm-.54,48.98c-1.43,1.42-2.95,2.72-4.57,3.83-.8,.58-1.65,1.04-2.49,1.52-.89,.41-1.77,.86-2.7,1.18-1.83,.69-3.74,1.17-5.69,1.38-1.94,.21-3.92,.16-5.87-.12-3.91-.56-7.71-2.01-11.21-4.04-1.75-1.02-3.43-2.17-5.03-3.43-1.15-.91-2.28-1.89-3.33-2.91,3.01-1.41,6.18-2.48,9.45-3.13,3.84-.72,7.79-1.02,11.72-.69,3.93,.31,7.84,1.1,11.6,2.39,1.89,.61,3.75,1.4,5.66,2.01,1.15,.38,2.32,.69,3.51,.94-.34,.36-.69,.72-1.05,1.06Z" fill="url(#uuid-0b8ea1a2-b048-4edb-b8e0-4ea6295980f4)" stroke="url(#uuid-b881ead1-be9f-41bf-b366-dac86596eb1e)" stroke-miterlimit="10" stroke-width=".75"/></g></g></svg>