<svg width="233" height="64" viewBox="0 0 233 64" fill="none" xmlns="http://www.w3.org/2000/svg">
<path d="M183.018 42.7406C183.234 43.0128 183.346 43.3268 183.346 43.6757C183.346 43.9757 183.269 44.2409 183.115 44.4781C182.962 44.7154 182.738 44.9038 182.445 45.0434C182.152 45.1829 181.81 45.2527 181.427 45.2527H179.082V39.3982H181.315C181.713 39.3982 182.055 39.468 182.341 39.6005C182.627 39.7331 182.843 39.9145 182.99 40.1448C183.136 40.3751 183.206 40.6263 183.206 40.9054C183.206 41.2404 183.115 41.5265 182.934 41.7498C182.752 41.9731 182.515 42.1405 182.208 42.2452C182.529 42.301 182.794 42.4615 183.018 42.7406ZM180.038 41.8544H181.224C181.538 41.8544 181.783 41.7846 181.964 41.6381C182.138 41.4916 182.229 41.2892 182.229 41.0171C182.229 40.7519 182.138 40.5496 181.964 40.396C181.789 40.2495 181.538 40.1727 181.224 40.1727H180.038V41.8544ZM182.103 44.2339C182.292 44.0734 182.383 43.8571 182.383 43.578C182.383 43.2919 182.285 43.0616 182.09 42.8941C181.894 42.7267 181.629 42.6429 181.308 42.6429H180.045V44.4712H181.343C181.664 44.4642 181.922 44.3874 182.103 44.2339Z" fill="black"/>
<path d="M188.314 40.6027L185.467 47.4271H184.476L185.418 45.1663L183.59 40.5957H184.657L185.962 44.1335L187.316 40.5957H188.314V40.6027Z" fill="black"/>
<path d="M196.897 39.3887V45.2432H195.934V41.2308L194.148 45.2432H193.485L191.691 41.2308V45.2432H190.729V39.3887H191.768L193.827 43.9802L195.871 39.3887H196.897Z" fill="black"/>
<path d="M202.129 43.2847H198.585C198.613 43.6546 198.752 43.9546 198.996 44.1779C199.241 44.4012 199.548 44.5129 199.903 44.5129C200.42 44.5129 200.783 44.2966 200.999 43.8639H202.039C201.899 44.2896 201.641 44.6385 201.278 44.9106C200.908 45.1828 200.455 45.3223 199.91 45.3223C199.464 45.3223 199.066 45.2246 198.717 45.0223C198.368 44.8199 198.089 44.5408 197.894 44.1779C197.691 43.8151 197.594 43.3964 197.594 42.9149C197.594 42.4404 197.691 42.0148 197.887 41.6519C198.082 41.2891 198.354 41.01 198.703 40.8146C199.052 40.6192 199.457 40.5215 199.91 40.5215C200.35 40.5215 200.741 40.6192 201.083 40.8076C201.425 40.996 201.69 41.2681 201.885 41.61C202.074 41.9589 202.171 42.3497 202.171 42.8033C202.157 42.9917 202.15 43.1452 202.129 43.2847ZM201.159 42.5102C201.153 42.1543 201.027 41.8752 200.783 41.6589C200.538 41.4426 200.231 41.3379 199.862 41.3379C199.527 41.3379 199.248 41.4426 199.01 41.6519C198.773 41.8612 198.633 42.1474 198.592 42.5102H201.159Z" fill="black"/>
<path d="M203.554 45.1255C203.268 44.993 203.037 44.8115 202.87 44.5882C202.702 44.358 202.612 44.1067 202.598 43.8276H203.589C203.602 44.023 203.7 44.1905 203.868 44.3231C204.042 44.4557 204.251 44.5185 204.51 44.5185C204.782 44.5185 204.991 44.4696 205.138 44.3649C205.284 44.2603 205.361 44.1277 205.361 43.9672C205.361 43.7927 205.277 43.6671 205.11 43.5764C204.942 43.4927 204.684 43.402 204.321 43.2973C203.972 43.1996 203.686 43.1089 203.47 43.0182C203.254 42.9275 203.058 42.7879 202.898 42.6065C202.737 42.4181 202.66 42.1739 202.66 41.8738C202.66 41.6296 202.73 41.3993 202.877 41.1969C203.023 40.9946 203.233 40.8271 203.505 40.7155C203.777 40.5968 204.091 40.541 204.447 40.541C204.977 40.541 205.403 40.6736 205.724 40.9388C206.045 41.2039 206.219 41.5668 206.24 42.0273H205.277C205.263 41.818 205.18 41.6505 205.026 41.5319C204.872 41.4063 204.67 41.3435 204.412 41.3435C204.161 41.3435 203.965 41.3923 203.833 41.49C203.7 41.5877 203.63 41.7133 203.63 41.8668C203.63 41.9924 203.672 42.0971 203.763 42.1808C203.854 42.2646 203.965 42.3344 204.091 42.3762C204.224 42.4251 204.412 42.4879 204.663 42.5577C204.998 42.6484 205.277 42.7391 205.494 42.8298C205.71 42.9205 205.898 43.0601 206.052 43.2415C206.212 43.4229 206.289 43.6602 206.296 43.9602C206.296 44.2254 206.226 44.4626 206.08 44.665C205.933 44.8743 205.724 45.0348 205.459 45.1535C205.193 45.2721 204.879 45.3279 204.517 45.3279C204.175 45.3279 203.847 45.2581 203.554 45.1255Z" fill="black"/>
<path d="M210.448 40.7582C210.727 40.9117 210.944 41.135 211.104 41.435C211.265 41.7351 211.341 42.091 211.341 42.5166V45.252H210.392V42.6562C210.392 42.2375 210.288 41.9235 210.078 41.7002C209.869 41.4769 209.59 41.3652 209.227 41.3652C208.864 41.3652 208.585 41.4769 208.369 41.7002C208.159 41.9235 208.055 42.2375 208.055 42.6562V45.252H207.092V39.0137H208.055V41.1489C208.215 40.9535 208.425 40.8 208.676 40.6954C208.927 40.5907 209.199 40.5349 209.499 40.5349C209.855 40.5279 210.169 40.6046 210.448 40.7582Z" fill="black"/>
<path d="M216.518 40.6035V45.2438H215.555V44.6996C215.402 44.888 215.206 45.0415 214.962 45.1532C214.718 45.2648 214.46 45.3206 214.181 45.3206C213.818 45.3206 213.49 45.2439 213.197 45.0904C212.911 44.9368 212.68 44.7135 212.513 44.4135C212.345 44.1134 212.262 43.7576 212.262 43.3319V40.6035H213.211V43.1924C213.211 43.611 213.315 43.925 213.525 44.1483C213.734 44.3716 214.013 44.4833 214.376 44.4833C214.739 44.4833 215.018 44.3716 215.234 44.1483C215.444 43.925 215.548 43.611 215.548 43.1924V40.6035H216.518V40.6035Z" fill="black"/>
<path d="M218.494 39.0137V45.252H217.531V39.0137H218.494Z" fill="black"/>
<path d="M219.47 41.6726C219.665 41.3097 219.93 41.0306 220.265 40.8352C220.6 40.6329 220.97 40.5352 221.375 40.5352C221.738 40.5352 222.059 40.605 222.331 40.7515C222.603 40.898 222.819 41.0725 222.987 41.2888V40.6119H223.957V45.2523H222.987V44.5614C222.826 44.7778 222.603 44.9662 222.324 45.1057C222.045 45.2523 221.724 45.322 221.361 45.322C220.963 45.322 220.593 45.2174 220.265 45.015C219.93 44.8127 219.672 44.5265 219.477 44.1567C219.281 43.7869 219.184 43.3752 219.184 42.9077C219.184 42.4402 219.281 42.0284 219.47 41.6726ZM222.784 42.0912C222.652 41.854 222.477 41.6726 222.268 41.554C222.052 41.4283 221.821 41.3655 221.577 41.3655C221.333 41.3655 221.103 41.4283 220.886 41.547C220.67 41.6656 220.502 41.847 220.37 42.0773C220.237 42.3076 220.174 42.5867 220.174 42.9077C220.174 43.2287 220.237 43.5078 220.37 43.752C220.502 43.9962 220.677 44.1777 220.893 44.3033C221.11 44.4289 221.34 44.4917 221.577 44.4917C221.821 44.4917 222.052 44.4289 222.268 44.3033C222.484 44.1777 222.652 43.9962 222.784 43.759C222.917 43.5217 222.98 43.2426 222.98 42.9216C222.98 42.6076 222.917 42.3285 222.784 42.0912Z" fill="black"/>
<path d="M231.564 40.7589C231.85 40.9124 232.08 41.1357 232.248 41.4358C232.415 41.7358 232.499 42.0917 232.499 42.5173V45.2527H231.55V42.6569C231.55 42.2382 231.445 41.9242 231.236 41.7009C231.027 41.4776 230.748 41.366 230.385 41.366C230.022 41.366 229.743 41.4776 229.526 41.7009C229.317 41.9242 229.212 42.2382 229.212 42.6569V45.2527H228.263V42.6569C228.263 42.2382 228.159 41.9242 227.949 41.7009C227.74 41.4776 227.461 41.366 227.098 41.366C226.735 41.366 226.456 41.4776 226.24 41.7009C226.031 41.9242 225.926 42.2382 225.926 42.6569V45.2527H224.963V40.6124H225.926V41.1427C226.086 40.9543 226.282 40.8008 226.526 40.6961C226.77 40.5914 227.028 40.5356 227.301 40.5356C227.67 40.5356 228.005 40.6124 228.291 40.7729C228.584 40.9334 228.808 41.1566 228.968 41.4567C229.108 41.1776 229.331 40.9543 229.624 40.7868C229.924 40.6193 230.245 40.5356 230.587 40.5356C230.95 40.5286 231.278 40.6054 231.564 40.7589Z" fill="black"/>
<path d="M53.8615 60.5238C53.087 60.5238 52.438 60.4052 51.9077 60.161C51.3843 59.9167 50.9796 59.6097 50.7005 59.2329C50.4214 58.8561 50.2679 58.4583 50.2539 58.0397C50.2539 57.9699 50.2818 57.9071 50.3376 57.8443C50.3935 57.7885 50.4633 57.7606 50.547 57.7606H51.2308C51.3355 57.7606 51.4192 57.7885 51.4681 57.8373C51.5239 57.8931 51.5588 57.9559 51.5727 58.0257C51.6286 58.242 51.7402 58.4514 51.9077 58.6607C52.0752 58.87 52.3194 59.0445 52.6334 59.184C52.9474 59.3236 53.3591 59.3934 53.8545 59.3934C54.6221 59.3934 55.1873 59.2608 55.5432 58.9887C55.906 58.7165 56.0875 58.3537 56.0875 57.9001C56.0875 57.5861 55.9898 57.3349 55.8014 57.1465C55.613 56.9581 55.3199 56.7836 54.9291 56.6301C54.5384 56.4766 54.029 56.3161 53.4079 56.1347C52.759 55.9463 52.2217 55.7439 51.7891 55.5206C51.3634 55.2973 51.0424 55.0182 50.8331 54.6903C50.6237 54.3623 50.5191 53.9436 50.5191 53.4342C50.5191 52.9527 50.6447 52.5201 50.9098 52.1433C51.168 51.7665 51.5448 51.4664 52.0333 51.2432C52.5217 51.0199 53.1079 50.9082 53.7987 50.9082C54.35 50.9082 54.8314 50.985 55.2501 51.1315C55.6618 51.278 56.0107 51.4734 56.2829 51.7176C56.562 51.9619 56.7713 52.227 56.9109 52.5062C57.0504 52.7853 57.1272 53.0574 57.1412 53.3296C57.1412 53.3924 57.1202 53.4552 57.0714 53.511C57.0295 53.5668 56.9527 53.5947 56.8551 53.5947H56.1433C56.0805 53.5947 56.0177 53.5738 55.9479 53.5389C55.8781 53.504 55.8293 53.4342 55.7944 53.3365C55.7386 52.9737 55.5362 52.6666 55.1803 52.4154C54.8245 52.1642 54.3639 52.0386 53.7917 52.0386C53.2126 52.0386 52.745 52.1503 52.3822 52.3736C52.0193 52.5969 51.8379 52.9458 51.8379 53.4133C51.8379 53.7133 51.9216 53.9646 52.0891 54.1669C52.2566 54.3693 52.5287 54.5437 52.8916 54.6972C53.2544 54.8507 53.7359 55.0112 54.3221 55.1787C55.0338 55.3741 55.62 55.5834 56.0735 55.7998C56.5271 56.0161 56.862 56.2882 57.0853 56.6162C57.3016 56.9441 57.4133 57.3558 57.4133 57.8652C57.4133 58.4235 57.2668 58.9049 56.9737 59.3027C56.6806 59.7004 56.2689 60.0005 55.7386 60.2098C55.2083 60.4191 54.5872 60.5238 53.8615 60.5238Z" fill="black"/>
<path d="M59.1918 52.1495C59.1011 52.1495 59.0313 52.1216 58.9685 52.0657C58.9127 52.0099 58.8848 51.9332 58.8848 51.8424V51.1237C58.8848 51.033 58.9127 50.9563 58.9685 50.8935C59.0243 50.8306 59.1011 50.8027 59.1918 50.8027H60.0361C60.1268 50.8027 60.2036 50.8306 60.2664 50.8935C60.3292 50.9563 60.3571 51.033 60.3571 51.1237V51.8424C60.3571 51.9332 60.3292 52.0029 60.2664 52.0657C60.2036 52.1216 60.1268 52.1495 60.0361 52.1495H59.1918ZM59.3034 60.3904C59.2127 60.3904 59.1429 60.3625 59.0801 60.3067C59.0243 60.2509 58.9964 60.1741 58.9964 60.0834V53.7474C58.9964 53.6567 59.0243 53.5869 59.0801 53.5241C59.136 53.4683 59.2127 53.4404 59.3034 53.4404H59.9454C60.0361 53.4404 60.1059 53.4683 60.1687 53.5241C60.2245 53.58 60.2524 53.6567 60.2524 53.7474V60.0834C60.2524 60.1741 60.2245 60.2439 60.1687 60.3067C60.1129 60.3625 60.0361 60.3904 59.9454 60.3904H59.3034Z" fill="black"/>
<path d="M62.6547 60.3913C62.564 60.3913 62.4942 60.3634 62.4314 60.3076C62.3756 60.2517 62.3477 60.175 62.3477 60.0843V53.7483C62.3477 53.6576 62.3756 53.5878 62.4314 53.525C62.4872 53.4692 62.564 53.4413 62.6547 53.4413H63.2548C63.3455 53.4413 63.4153 53.4692 63.4781 53.525C63.5339 53.5808 63.5618 53.6576 63.5618 53.7483V54.2158C63.7642 53.9367 64.0224 53.7204 64.3364 53.5529C64.6504 53.3854 65.0202 53.3087 65.4598 53.3087C66.4647 53.3017 67.1764 53.7064 67.5951 54.5368C67.7974 54.16 68.0975 53.8669 68.4883 53.6436C68.879 53.4203 69.3256 53.3087 69.828 53.3087C70.2886 53.3087 70.7142 53.4133 71.091 53.6297C71.4678 53.846 71.7679 54.167 71.9842 54.5996C72.2005 55.0322 72.3122 55.5765 72.3122 56.2255V60.0913C72.3122 60.182 72.2843 60.2517 72.2284 60.3146C72.1726 60.3704 72.0959 60.3983 72.0052 60.3983H71.3771C71.2864 60.3983 71.2166 60.3704 71.1538 60.3146C71.091 60.2587 71.0701 60.182 71.0701 60.0913V56.3511C71.0701 55.8556 71.0003 55.4579 70.8538 55.1718C70.7142 54.8857 70.5188 54.6833 70.2816 54.5717C70.0374 54.4531 69.7792 54.3972 69.4931 54.3972C69.2628 54.3972 69.0256 54.4531 68.7813 54.5717C68.5441 54.6903 68.3417 54.8857 68.1882 55.1718C68.0347 55.4579 67.951 55.8486 67.951 56.3511V60.0913C67.951 60.182 67.923 60.2517 67.8672 60.3146C67.8114 60.3704 67.7346 60.3983 67.6439 60.3983H67.0159C66.9252 60.3983 66.8554 60.3704 66.7926 60.3146C66.7368 60.2587 66.7089 60.182 66.7089 60.0913V56.3511C66.7089 55.8556 66.6321 55.4579 66.4786 55.1718C66.3251 54.8857 66.1297 54.6833 65.8925 54.5717C65.6552 54.4531 65.397 54.3972 65.1319 54.3972C64.9016 54.3972 64.6643 54.4531 64.4271 54.5717C64.1829 54.6903 63.9875 54.8857 63.834 55.1718C63.6804 55.4579 63.6037 55.8417 63.6037 56.3371V60.0913C63.6037 60.182 63.5758 60.2517 63.52 60.3146C63.4641 60.3704 63.3874 60.3983 63.2967 60.3983H62.6547V60.3913Z" fill="black"/>
<path d="M74.5512 62.9312C74.4605 62.9312 74.3907 62.9033 74.3279 62.8474C74.272 62.7916 74.2441 62.7149 74.2441 62.6242V53.7482C74.2441 53.6575 74.272 53.5877 74.3279 53.5249C74.3837 53.4691 74.4605 53.4412 74.5512 53.4412H75.1652C75.2559 53.4412 75.3257 53.4691 75.3885 53.5249C75.4443 53.5807 75.4723 53.6575 75.4723 53.7482V54.3344C75.6886 54.0413 75.9677 53.797 76.3306 53.6017C76.6864 53.4063 77.133 53.3086 77.6703 53.3086C78.1658 53.3086 78.5914 53.3923 78.9473 53.5598C79.2962 53.7273 79.5893 53.9575 79.8195 54.2576C80.0498 54.5507 80.2173 54.8856 80.3359 55.2624C80.4545 55.6392 80.5173 56.037 80.5383 56.4626C80.5452 56.6022 80.5522 56.7557 80.5522 56.9162C80.5522 57.0767 80.5452 57.2302 80.5383 57.3698C80.5173 57.7884 80.4545 58.1862 80.3359 58.563C80.2173 58.9398 80.0498 59.2747 79.8195 59.5678C79.5893 59.8539 79.3032 60.0912 78.9473 60.2656C78.5984 60.4401 78.1727 60.5238 77.6703 60.5238C77.1539 60.5238 76.7213 60.4261 76.3654 60.2377C76.0096 60.0493 75.7235 59.8051 75.5002 59.526V62.6242C75.5002 62.7149 75.4723 62.7846 75.4164 62.8474C75.3606 62.9033 75.2908 62.9312 75.2001 62.9312H74.5512V62.9312ZM77.3842 59.4422C77.8448 59.4422 78.2076 59.3445 78.4728 59.1422C78.7379 58.9398 78.9263 58.6816 79.038 58.3537C79.1566 58.0257 79.2194 57.6768 79.2404 57.307C79.2473 57.0488 79.2473 56.7906 79.2404 56.5324C79.2194 56.1556 79.1566 55.8067 79.038 55.4857C78.9194 55.1577 78.731 54.8996 78.4728 54.6972C78.2076 54.4948 77.8448 54.3972 77.3842 54.3972C76.9446 54.3972 76.5957 54.5018 76.3236 54.7042C76.0514 54.9065 75.8491 55.1717 75.7235 55.4857C75.5909 55.7997 75.5211 56.1277 75.5002 56.4557C75.4932 56.5952 75.4862 56.7697 75.4862 56.965C75.4862 57.1604 75.4932 57.3349 75.5002 57.4884C75.5072 57.8024 75.5839 58.1094 75.7235 58.4095C75.863 58.7095 76.0654 58.9607 76.3445 59.1561C76.6167 59.3445 76.9655 59.4422 77.3842 59.4422Z" fill="black"/>
<path d="M82.5199 60.3904C82.4292 60.3904 82.3594 60.3625 82.2966 60.3067C82.2408 60.2509 82.2129 60.1741 82.2129 60.0834V51.2074C82.2129 51.1167 82.2408 51.0469 82.2966 50.9841C82.3525 50.9283 82.4292 50.9004 82.5199 50.9004H83.1479C83.2456 50.9004 83.3224 50.9283 83.3782 50.9841C83.434 51.0399 83.4619 51.1167 83.4619 51.2074V60.0834C83.4619 60.1741 83.434 60.2439 83.3782 60.3067C83.3224 60.3625 83.2456 60.3904 83.1479 60.3904H82.5199Z" fill="black"/>
<path d="M88.2215 60.5238C87.2935 60.5238 86.5608 60.2377 86.0165 59.6725C85.4722 59.1073 85.1722 58.3327 85.1233 57.3558C85.1163 57.2372 85.1094 57.0906 85.1094 56.9092C85.1094 56.7278 85.1163 56.5743 85.1233 56.4626C85.1582 55.8276 85.3048 55.2764 85.5629 54.8019C85.8211 54.3274 86.177 53.9575 86.6236 53.6994C87.0702 53.4412 87.6005 53.3086 88.2076 53.3086C88.8844 53.3086 89.4497 53.4481 89.9102 53.7342C90.3707 54.0203 90.7196 54.4251 90.9569 54.9484C91.2011 55.4718 91.3197 56.0858 91.3197 56.7906V57.0209C91.3197 57.1186 91.2918 57.1953 91.236 57.2511C91.1802 57.307 91.1034 57.3349 91.0127 57.3349H86.3863C86.3863 57.3418 86.3863 57.3628 86.3863 57.3907C86.3863 57.4186 86.3863 57.4395 86.3863 57.4605C86.4073 57.8233 86.484 58.1653 86.6236 58.4793C86.7631 58.7933 86.9725 59.0515 87.2446 59.2468C87.5168 59.4422 87.8377 59.5399 88.2006 59.5399C88.5216 59.5399 88.7868 59.4911 89.0031 59.3934C89.2194 59.2957 89.3938 59.184 89.5264 59.0654C89.659 58.9468 89.7497 58.8491 89.7916 58.7793C89.8753 58.6746 89.9311 58.6049 89.98 58.5839C90.0219 58.563 90.0986 58.549 90.1963 58.549H90.8522C90.936 58.549 90.9988 58.5769 91.0616 58.6258C91.1174 58.6746 91.1453 58.7444 91.1383 58.8351C91.1313 58.9677 91.0546 59.1282 90.922 59.3236C90.7894 59.512 90.601 59.7074 90.3568 59.8888C90.1126 60.0772 89.8055 60.2307 89.4497 60.3493C89.0868 60.468 88.6821 60.5238 88.2215 60.5238ZM86.3933 56.4068H90.0567V56.3649C90.0567 55.9672 89.987 55.6043 89.8334 55.2973C89.6869 54.9833 89.4776 54.7391 89.1985 54.5577C88.9193 54.3762 88.5914 54.2855 88.2076 54.2855C87.8238 54.2855 87.4958 54.3762 87.2237 54.5577C86.9516 54.7391 86.7422 54.9903 86.6027 55.2973C86.4631 55.6113 86.3863 55.9672 86.3863 56.3649V56.4068H86.3933Z" fill="black"/>
<path d="M93.141 60.3915C93.0503 60.3915 92.9805 60.3636 92.9177 60.3077C92.8549 60.2519 92.834 60.1752 92.834 60.0844V59.1215C92.834 59.0308 92.8619 58.961 92.9177 58.8982C92.9736 58.8424 93.0503 58.8145 93.141 58.8145H94.104C94.1947 58.8145 94.2714 58.8424 94.3343 58.8982C94.3971 58.954 94.425 59.0308 94.425 59.1215V60.0844C94.425 60.1752 94.3971 60.2449 94.3343 60.3077C94.2714 60.3636 94.1947 60.3915 94.104 60.3915H93.141Z" fill="black"/>
<path d="M99.1139 60.3917C99.0442 60.3917 98.9814 60.3638 98.9255 60.308C98.8697 60.2522 98.8418 60.1894 98.8418 60.1196C98.8418 60.0777 98.8488 60.0289 98.8558 59.9731L102.17 51.3274C102.205 51.2367 102.254 51.1669 102.317 51.1111C102.38 51.0553 102.47 51.0273 102.596 51.0273H103.503C103.629 51.0273 103.719 51.0553 103.782 51.1111C103.845 51.1669 103.894 51.2367 103.929 51.3274L107.229 59.9731C107.25 60.0289 107.257 60.0777 107.257 60.1196C107.257 60.1894 107.229 60.2522 107.173 60.308C107.118 60.3638 107.055 60.3917 106.985 60.3917H106.301C106.197 60.3917 106.113 60.3638 106.064 60.308C106.015 60.2522 105.98 60.2033 105.966 60.1615L105.234 58.2635H100.851L100.119 60.1615C100.112 60.2033 100.077 60.2522 100.028 60.308C99.9722 60.3638 99.8955 60.3917 99.7838 60.3917H99.1139ZM101.256 57.1191H104.864L103.056 52.3741L101.256 57.1191Z" fill="black"/>
<path d="M110.984 60.5227C110.496 60.5227 110.07 60.439 109.714 60.2645C109.358 60.0901 109.065 59.8528 108.842 59.5527C108.612 59.2527 108.444 58.9108 108.332 58.527C108.221 58.1432 108.158 57.7385 108.137 57.3128C108.13 57.1733 108.123 57.0337 108.123 56.9151C108.123 56.7895 108.13 56.6569 108.137 56.5174C108.158 56.0987 108.221 55.7009 108.332 55.3171C108.444 54.9334 108.612 54.5914 108.842 54.2914C109.072 53.9913 109.358 53.7471 109.714 53.5796C110.07 53.4052 110.496 53.3214 110.984 53.3214C111.507 53.3214 111.947 53.4122 112.296 53.6006C112.645 53.789 112.931 54.0192 113.154 54.2984V51.2211C113.154 51.1304 113.182 51.0606 113.238 50.9978C113.294 50.942 113.37 50.9141 113.461 50.9141H114.103C114.194 50.9141 114.264 50.942 114.326 50.9978C114.382 51.0536 114.41 51.1304 114.41 51.2211V60.0971C114.41 60.1878 114.382 60.2575 114.326 60.3203C114.271 60.3762 114.194 60.4041 114.103 60.4041H113.503C113.405 60.4041 113.329 60.3762 113.273 60.3203C113.217 60.2645 113.189 60.1878 113.189 60.0971V59.5388C112.966 59.8249 112.68 60.0621 112.324 60.2505C111.968 60.432 111.521 60.5227 110.984 60.5227ZM111.263 59.4411C111.71 59.4411 112.066 59.3364 112.331 59.1341C112.596 58.9317 112.798 58.6666 112.931 58.3526C113.063 58.0386 113.133 57.7106 113.147 57.3826C113.154 57.2431 113.161 57.0686 113.161 56.8663C113.161 56.6639 113.154 56.4964 113.147 56.3499C113.14 56.0359 113.063 55.7289 112.924 55.4288C112.784 55.1287 112.582 54.8775 112.31 54.6822C112.038 54.4868 111.689 54.3891 111.263 54.3891C110.81 54.3891 110.447 54.4868 110.182 54.6891C109.916 54.8915 109.721 55.1497 109.609 55.4776C109.491 55.8056 109.428 56.1545 109.407 56.5243C109.4 56.7825 109.4 57.0407 109.407 57.2989C109.428 57.6757 109.491 58.0246 109.609 58.3456C109.728 58.6735 109.916 58.9317 110.182 59.1341C110.454 59.3434 110.81 59.4411 111.263 59.4411Z" fill="black"/>
<path d="M118.82 60.3895C118.687 60.3895 118.582 60.3616 118.506 60.2988C118.429 60.236 118.373 60.1592 118.324 60.0545L115.854 53.8511C115.833 53.8093 115.826 53.7604 115.826 53.7186C115.826 53.6348 115.854 53.572 115.903 53.5162C115.959 53.4604 116.022 53.4395 116.105 53.4395H116.747C116.845 53.4395 116.922 53.4674 116.978 53.5162C117.033 53.572 117.068 53.6209 117.082 53.6628L119.113 58.9311L121.143 53.6628C121.164 53.6209 121.192 53.572 121.241 53.5162C121.29 53.4604 121.367 53.4395 121.464 53.4395H122.12C122.19 53.4395 122.253 53.4674 122.316 53.5162C122.372 53.572 122.399 53.6348 122.399 53.7186C122.399 53.7604 122.392 53.8093 122.371 53.8511L119.887 60.0545C119.852 60.1522 119.797 60.236 119.72 60.2988C119.643 60.3616 119.538 60.3895 119.392 60.3895H118.82Z" fill="black"/>
<path d="M125.469 60.5238C125.023 60.5238 124.618 60.4331 124.255 60.2586C123.892 60.0772 123.599 59.84 123.376 59.5399C123.153 59.2398 123.041 58.8909 123.041 58.5141C123.041 57.9001 123.292 57.4116 123.788 57.0418C124.283 56.6789 124.939 56.4347 125.741 56.3231L127.73 56.0439V55.6532C127.73 55.2275 127.605 54.8926 127.36 54.6483C127.116 54.4111 126.718 54.2855 126.167 54.2855C125.776 54.2855 125.455 54.3623 125.204 54.5228C124.953 54.6832 124.779 54.8856 124.681 55.1368C124.625 55.2694 124.534 55.3392 124.402 55.3392H123.802C123.704 55.3392 123.627 55.3113 123.578 55.2554C123.529 55.1996 123.502 55.1298 123.502 55.0461C123.502 54.9135 123.55 54.7461 123.655 54.5507C123.76 54.3553 123.913 54.1599 124.13 53.9785C124.346 53.7901 124.618 53.6366 124.953 53.504C125.288 53.3784 125.693 53.3086 126.174 53.3086C126.711 53.3086 127.158 53.3784 127.521 53.5179C127.884 53.6575 128.177 53.8389 128.386 54.0692C128.595 54.2995 128.749 54.5646 128.84 54.8577C128.93 55.1508 128.979 55.4508 128.979 55.7509V60.0842C128.979 60.1749 128.951 60.2447 128.896 60.3075C128.84 60.3633 128.763 60.3912 128.672 60.3912H128.058C127.96 60.3912 127.884 60.3633 127.828 60.3075C127.772 60.2517 127.744 60.1749 127.744 60.0842V59.512C127.626 59.6725 127.472 59.833 127.277 59.9865C127.081 60.14 126.837 60.2726 126.544 60.3773C126.258 60.475 125.902 60.5238 125.469 60.5238ZM125.755 59.526C126.118 59.526 126.453 59.4492 126.76 59.2887C127.06 59.1352 127.305 58.891 127.479 58.563C127.653 58.235 127.737 57.8164 127.737 57.3209V56.9441L126.188 57.1744C125.553 57.2651 125.079 57.4116 124.758 57.621C124.437 57.8303 124.276 58.0955 124.276 58.4165C124.276 58.6677 124.346 58.87 124.499 59.0375C124.646 59.205 124.834 59.3236 125.058 59.4073C125.281 59.4841 125.511 59.526 125.755 59.526Z" fill="black"/>
<path d="M131.219 60.3912C131.128 60.3912 131.059 60.3633 130.996 60.3075C130.94 60.2517 130.912 60.1749 130.912 60.0842V53.7482C130.912 53.6575 130.94 53.5877 130.996 53.5249C131.052 53.4691 131.128 53.4412 131.219 53.4412H131.847C131.938 53.4412 132.008 53.4691 132.07 53.5249C132.126 53.5807 132.154 53.6575 132.154 53.7482V54.3344C132.384 54.0343 132.678 53.7831 133.026 53.5947C133.375 53.4063 133.829 53.3086 134.38 53.3086C134.959 53.3086 135.455 53.4342 135.859 53.6924C136.264 53.9436 136.571 54.2995 136.781 54.7461C136.99 55.1996 137.095 55.723 137.095 56.3161V60.0842C137.095 60.1749 137.067 60.2447 137.011 60.3075C136.955 60.3633 136.878 60.3912 136.788 60.3912H136.118C136.027 60.3912 135.957 60.3633 135.894 60.3075C135.839 60.2517 135.811 60.1749 135.811 60.0842V56.3789C135.811 55.7579 135.657 55.2694 135.357 54.9135C135.057 54.5646 134.61 54.3832 134.017 54.3832C133.466 54.3832 133.019 54.5576 132.685 54.9135C132.35 55.2694 132.182 55.7509 132.182 56.3789V60.0842C132.182 60.1749 132.154 60.2447 132.098 60.3075C132.043 60.3633 131.966 60.3912 131.875 60.3912H131.219V60.3912Z" fill="black"/>
<path d="M141.819 60.5241C141.184 60.5241 140.64 60.3985 140.179 60.1542C139.719 59.91 139.363 59.5541 139.119 59.1006C138.868 58.64 138.735 58.0888 138.721 57.4468C138.714 57.3142 138.707 57.1328 138.707 56.9095C138.707 56.6862 138.714 56.5117 138.721 56.3722C138.742 55.7302 138.874 55.179 139.119 54.7184C139.37 54.2579 139.726 53.909 140.179 53.6648C140.64 53.4205 141.184 53.2949 141.819 53.2949C142.336 53.2949 142.782 53.3647 143.152 53.5112C143.522 53.6508 143.829 53.8392 144.066 54.0625C144.303 54.2858 144.485 54.523 144.61 54.7812C144.729 55.0394 144.792 55.2836 144.806 55.5139C144.813 55.6046 144.785 55.6744 144.729 55.7302C144.666 55.786 144.589 55.814 144.499 55.814H143.857C143.766 55.814 143.703 55.793 143.654 55.7512C143.613 55.7093 143.564 55.6395 143.522 55.5418C143.361 55.1022 143.145 54.7952 142.866 54.6207C142.587 54.4393 142.245 54.3556 141.84 54.3556C141.303 54.3556 140.87 54.523 140.535 54.851C140.2 55.179 140.019 55.7093 139.991 56.442C139.984 56.7629 139.984 57.077 139.991 57.377C140.019 58.1167 140.2 58.647 140.535 58.975C140.87 59.3029 141.303 59.4634 141.84 59.4634C142.252 59.4634 142.594 59.3727 142.866 59.1983C143.145 59.0168 143.361 58.7098 143.522 58.2772C143.564 58.1795 143.613 58.1097 143.654 58.0609C143.696 58.019 143.766 57.9911 143.857 57.9911H144.499C144.589 57.9911 144.666 58.019 144.729 58.0748C144.792 58.1306 144.82 58.2074 144.806 58.2981C144.799 58.4865 144.757 58.6749 144.687 58.8703C144.617 59.0657 144.499 59.2611 144.345 59.4634C144.192 59.6658 143.996 59.8402 143.766 60.0007C143.536 60.1542 143.257 60.2798 142.936 60.3775C142.608 60.4822 142.238 60.5241 141.819 60.5241Z" fill="black"/>
<path d="M149.167 60.5238C148.239 60.5238 147.506 60.2377 146.962 59.6725C146.418 59.1073 146.117 58.3327 146.069 57.3558C146.062 57.2372 146.055 57.0906 146.055 56.9092C146.055 56.7278 146.062 56.5743 146.069 56.4626C146.104 55.8276 146.25 55.2764 146.508 54.8019C146.766 54.3274 147.122 53.9575 147.569 53.6994C148.016 53.4412 148.546 53.3086 149.153 53.3086C149.83 53.3086 150.395 53.4481 150.856 53.7342C151.316 54.0203 151.665 54.4251 151.902 54.9484C152.146 55.4718 152.265 56.0858 152.265 56.7906V57.0209C152.265 57.1186 152.237 57.1953 152.181 57.2511C152.126 57.307 152.049 57.3349 151.958 57.3349H147.332C147.332 57.3418 147.332 57.3628 147.332 57.3907C147.332 57.4186 147.332 57.4395 147.332 57.4605C147.353 57.8233 147.429 58.1653 147.576 58.4793C147.715 58.7933 147.925 59.0515 148.197 59.2468C148.469 59.4422 148.79 59.5399 149.153 59.5399C149.474 59.5399 149.739 59.4911 149.955 59.3934C150.172 59.2957 150.346 59.184 150.479 59.0654C150.611 58.9468 150.702 58.8491 150.744 58.7793C150.828 58.6746 150.883 58.6049 150.932 58.5839C150.974 58.563 151.051 58.549 151.149 58.549H151.805C151.888 58.549 151.951 58.5769 152.014 58.6258C152.07 58.6746 152.098 58.7444 152.084 58.8351C152.077 58.9677 152 59.1282 151.867 59.3236C151.735 59.512 151.546 59.7074 151.302 59.8888C151.058 60.0772 150.751 60.2307 150.395 60.3493C150.032 60.468 149.62 60.5238 149.167 60.5238ZM147.339 56.4068H151.002V56.3649C151.002 55.9672 150.932 55.6043 150.779 55.2973C150.632 54.9833 150.423 54.7391 150.144 54.5577C149.865 54.3762 149.537 54.2855 149.153 54.2855C148.769 54.2855 148.441 54.3762 148.169 54.5577C147.897 54.7391 147.688 54.9903 147.548 55.2973C147.408 55.6113 147.332 55.9672 147.332 56.3649V56.4068H147.339Z" fill="black"/>
<path d="M156.41 60.5227C155.921 60.5227 155.496 60.439 155.14 60.2645C154.784 60.0901 154.491 59.8528 154.268 59.5527C154.037 59.2527 153.87 58.9108 153.758 58.527C153.647 58.1432 153.584 57.7385 153.563 57.3128C153.556 57.1733 153.549 57.0337 153.549 56.9151C153.549 56.7895 153.556 56.6569 153.563 56.5174C153.584 56.0987 153.647 55.7009 153.758 55.3171C153.87 54.9334 154.037 54.5914 154.268 54.2914C154.498 53.9913 154.784 53.7471 155.14 53.5796C155.496 53.4052 155.921 53.3214 156.41 53.3214C156.933 53.3214 157.373 53.4122 157.722 53.6006C158.071 53.789 158.357 54.0192 158.58 54.2984V51.2211C158.58 51.1304 158.608 51.0606 158.664 50.9978C158.72 50.942 158.796 50.9141 158.887 50.9141H159.529C159.62 50.9141 159.689 50.942 159.752 50.9978C159.808 51.0536 159.836 51.1304 159.836 51.2211V60.0971C159.836 60.1878 159.808 60.2575 159.752 60.3203C159.696 60.3762 159.62 60.4041 159.529 60.4041H158.929C158.831 60.4041 158.754 60.3762 158.699 60.3203C158.643 60.2645 158.615 60.1878 158.615 60.0971V59.5388C158.392 59.8249 158.105 60.0621 157.743 60.2505C157.394 60.432 156.947 60.5227 156.41 60.5227ZM156.696 59.4411C157.142 59.4411 157.498 59.3364 157.764 59.1341C158.029 58.9317 158.231 58.6666 158.364 58.3526C158.496 58.0386 158.566 57.7106 158.58 57.3826C158.587 57.2431 158.594 57.0686 158.594 56.8663C158.594 56.6639 158.587 56.4964 158.58 56.3499C158.573 56.0359 158.496 55.7289 158.357 55.4288C158.217 55.1287 158.015 54.8775 157.743 54.6822C157.47 54.4868 157.122 54.3891 156.696 54.3891C156.242 54.3891 155.879 54.4868 155.614 54.6891C155.349 54.8915 155.154 55.1497 155.042 55.4776C154.923 55.8056 154.861 56.1545 154.84 56.5243C154.833 56.7825 154.833 57.0407 154.84 57.2989C154.861 57.6757 154.923 58.0246 155.042 58.3456C155.161 58.6735 155.349 58.9317 155.614 59.1341C155.879 59.3434 156.235 59.4411 156.696 59.4411Z" fill="black"/>
<path d="M162.041 60.3915C161.951 60.3915 161.881 60.3636 161.818 60.3077C161.762 60.2519 161.734 60.1752 161.734 60.0844V59.1215C161.734 59.0308 161.762 58.961 161.818 58.8982C161.874 58.8424 161.951 58.8145 162.041 58.8145H163.004C163.095 58.8145 163.172 58.8424 163.235 58.8982C163.297 58.954 163.325 59.0308 163.325 59.1215V60.0844C163.325 60.1752 163.297 60.2449 163.235 60.3077C163.172 60.3636 163.095 60.3915 163.004 60.3915H162.041Z" fill="black"/>
<path d="M168.95 60.3906C168.852 60.3906 168.775 60.3627 168.719 60.3069C168.664 60.2511 168.643 60.1743 168.643 60.0836V51.3542C168.643 51.2565 168.671 51.1797 168.719 51.1169C168.775 51.0611 168.852 51.0332 168.95 51.0332H172.341C173.004 51.0332 173.576 51.1379 174.057 51.3542C174.546 51.5705 174.923 51.8845 175.188 52.3102C175.453 52.7358 175.586 53.2592 175.586 53.8942C175.586 54.5292 175.453 55.0525 175.188 55.4712C174.923 55.8899 174.546 56.2039 174.057 56.4202C173.569 56.6365 172.997 56.7412 172.341 56.7412H169.975V60.0836C169.975 60.1743 169.947 60.2441 169.892 60.3069C169.836 60.3627 169.759 60.3906 169.654 60.3906H168.95ZM169.961 55.6247H172.271C172.927 55.6247 173.422 55.4782 173.757 55.1851C174.085 54.892 174.253 54.4664 174.253 53.9012C174.253 53.3499 174.092 52.9242 173.771 52.6172C173.45 52.3172 172.955 52.1636 172.278 52.1636H169.968V55.6247H169.961Z" fill="black"/>
<path d="M178.85 60.5238C178.404 60.5238 177.999 60.4331 177.636 60.2586C177.273 60.0772 176.973 59.84 176.757 59.5399C176.534 59.2398 176.422 58.8909 176.422 58.5141C176.422 57.9001 176.673 57.4116 177.169 57.0418C177.664 56.6789 178.32 56.4347 179.122 56.3231L181.111 56.0439V55.6532C181.111 55.2275 180.985 54.8926 180.741 54.6483C180.497 54.4111 180.099 54.2855 179.548 54.2855C179.157 54.2855 178.836 54.3623 178.585 54.5228C178.334 54.6832 178.159 54.8856 178.062 55.1368C178.006 55.2694 177.915 55.3392 177.783 55.3392H177.182C177.085 55.3392 177.008 55.3113 176.959 55.2554C176.91 55.1996 176.882 55.1298 176.882 55.0461C176.882 54.9135 176.931 54.7461 177.036 54.5507C177.141 54.3553 177.294 54.1599 177.51 53.9785C177.727 53.7901 177.999 53.6366 178.334 53.504C178.669 53.3784 179.074 53.3086 179.555 53.3086C180.092 53.3086 180.539 53.3784 180.902 53.5179C181.265 53.6575 181.558 53.8389 181.767 54.0692C181.976 54.2995 182.13 54.5646 182.221 54.8577C182.311 55.1508 182.36 55.4508 182.36 55.7509V60.0842C182.36 60.1749 182.332 60.2447 182.276 60.3075C182.221 60.3633 182.144 60.3912 182.053 60.3912H181.439C181.341 60.3912 181.265 60.3633 181.209 60.3075C181.153 60.2517 181.139 60.1749 181.139 60.0842V59.512C181.02 59.6725 180.867 59.833 180.671 59.9865C180.476 60.14 180.232 60.2726 179.939 60.3773C179.639 60.475 179.276 60.5238 178.85 60.5238ZM179.129 59.526C179.492 59.526 179.827 59.4492 180.134 59.2887C180.434 59.1352 180.678 58.891 180.853 58.563C181.027 58.235 181.111 57.8164 181.111 57.3209V56.9441L179.562 57.1744C178.927 57.2651 178.452 57.4116 178.131 57.621C177.81 57.8303 177.65 58.0955 177.65 58.4165C177.65 58.6677 177.727 58.87 177.873 59.0375C178.02 59.205 178.208 59.3236 178.432 59.4073C178.655 59.4841 178.892 59.526 179.129 59.526Z" fill="black"/>
<path d="M185.361 62.9286C185.291 62.9286 185.228 62.9007 185.172 62.8449C185.117 62.7891 185.089 62.7263 185.089 62.6565C185.089 62.6216 185.096 62.5867 185.103 62.5518C185.11 62.5169 185.131 62.4681 185.159 62.4192L186.184 59.97L183.63 53.941C183.588 53.8364 183.561 53.7596 183.561 53.7108C183.561 53.627 183.588 53.5642 183.644 53.5084C183.7 53.4526 183.763 53.4316 183.847 53.4316H184.503C184.6 53.4316 184.677 53.4526 184.726 53.5014C184.775 53.5433 184.81 53.5991 184.824 53.6619L186.854 58.5256L188.941 53.6619C188.968 53.5991 189.003 53.5433 189.052 53.5014C189.101 53.4596 189.178 53.4316 189.275 53.4316H189.904C189.987 53.4316 190.05 53.4596 190.106 53.5084C190.162 53.5573 190.19 53.627 190.19 53.6968C190.19 53.7387 190.169 53.8224 190.12 53.941L186.324 62.6984C186.296 62.7612 186.261 62.817 186.212 62.8589C186.163 62.9007 186.087 62.9286 185.989 62.9286H185.361V62.9286Z" fill="black"/>
<path d="M191.829 60.3913C191.738 60.3913 191.668 60.3634 191.605 60.3076C191.549 60.2517 191.521 60.175 191.521 60.0843V53.7483C191.521 53.6576 191.549 53.5878 191.605 53.525C191.661 53.4692 191.738 53.4413 191.829 53.4413H192.429C192.519 53.4413 192.589 53.4692 192.652 53.525C192.708 53.5808 192.736 53.6576 192.736 53.7483V54.2158C192.938 53.9367 193.196 53.7204 193.51 53.5529C193.824 53.3854 194.194 53.3087 194.634 53.3087C195.638 53.3017 196.35 53.7064 196.769 54.5368C196.971 54.16 197.271 53.8669 197.662 53.6436C198.053 53.4203 198.499 53.3087 199.002 53.3087C199.462 53.3087 199.888 53.4133 200.265 53.6297C200.642 53.846 200.942 54.167 201.158 54.5996C201.374 55.0322 201.486 55.5765 201.486 56.2255V60.0913C201.486 60.182 201.458 60.2517 201.402 60.3146C201.346 60.3704 201.27 60.3983 201.179 60.3983H200.551C200.46 60.3983 200.39 60.3704 200.328 60.3146C200.272 60.2587 200.244 60.182 200.244 60.0913V56.3511C200.244 55.8556 200.174 55.4579 200.028 55.1718C199.888 54.8857 199.693 54.6833 199.455 54.5717C199.218 54.4531 198.953 54.3972 198.667 54.3972C198.437 54.3972 198.199 54.4531 197.955 54.5717C197.711 54.6903 197.516 54.8857 197.362 55.1718C197.209 55.4579 197.125 55.8486 197.125 56.3511V60.0913C197.125 60.182 197.097 60.2517 197.041 60.3146C196.985 60.3704 196.908 60.3983 196.818 60.3983H196.19C196.099 60.3983 196.029 60.3704 195.966 60.3146C195.911 60.2587 195.883 60.182 195.883 60.0913V56.3511C195.883 55.8556 195.806 55.4579 195.652 55.1718C195.499 54.8857 195.304 54.6833 195.066 54.5717C194.829 54.4531 194.571 54.3972 194.306 54.3972C194.075 54.3972 193.838 54.4531 193.594 54.5717C193.357 54.6903 193.154 54.8857 193.001 55.1718C192.847 55.4579 192.764 55.8417 192.764 56.3371V60.0913C192.764 60.182 192.736 60.2517 192.68 60.3146C192.624 60.3704 192.547 60.3983 192.457 60.3983H191.829V60.3913Z" fill="black"/>
<path d="M206.182 60.5238C205.254 60.5238 204.522 60.2377 203.977 59.6725C203.433 59.1073 203.133 58.3327 203.084 57.3558C203.077 57.2372 203.07 57.0906 203.07 56.9092C203.07 56.7278 203.077 56.5743 203.084 56.4626C203.119 55.8276 203.266 55.2764 203.524 54.8019C203.782 54.3274 204.138 53.9575 204.585 53.6994C205.031 53.4412 205.561 53.3086 206.169 53.3086C206.845 53.3086 207.411 53.4481 207.871 53.7342C208.332 54.0203 208.681 54.4251 208.918 54.9484C209.155 55.4718 209.281 56.0858 209.281 56.7906V57.0209C209.281 57.1186 209.253 57.1953 209.197 57.2511C209.141 57.307 209.064 57.3349 208.974 57.3349H204.347C204.347 57.3418 204.347 57.3628 204.347 57.3907C204.347 57.4186 204.347 57.4395 204.347 57.4605C204.368 57.8233 204.445 58.1653 204.585 58.4793C204.724 58.7933 204.933 59.0515 205.206 59.2468C205.478 59.4422 205.799 59.5399 206.162 59.5399C206.483 59.5399 206.748 59.4911 206.964 59.3934C207.18 59.2957 207.355 59.184 207.487 59.0654C207.62 58.9468 207.711 58.8491 207.753 58.7793C207.836 58.6746 207.892 58.6049 207.941 58.5839C207.99 58.563 208.06 58.549 208.157 58.549H208.813C208.897 58.549 208.96 58.5769 209.023 58.6258C209.078 58.6746 209.106 58.7444 209.099 58.8351C209.092 58.9677 209.016 59.1282 208.883 59.3236C208.75 59.512 208.562 59.7074 208.318 59.8888C208.074 60.0772 207.766 60.2307 207.411 60.3493C207.041 60.468 206.636 60.5238 206.182 60.5238ZM204.347 56.4068H208.011V56.3649C208.011 55.9672 207.934 55.6043 207.787 55.2973C207.641 54.9833 207.432 54.7391 207.152 54.5577C206.873 54.3762 206.545 54.2855 206.162 54.2855C205.778 54.2855 205.45 54.3762 205.178 54.5577C204.906 54.7391 204.696 54.9903 204.557 55.2973C204.417 55.6113 204.34 55.9672 204.34 56.3649V56.4068H204.347Z" fill="black"/>
<path d="M211.194 60.3912C211.103 60.3912 211.033 60.3633 210.97 60.3075C210.915 60.2517 210.887 60.1749 210.887 60.0842V53.7482C210.887 53.6575 210.915 53.5877 210.97 53.5249C211.026 53.4691 211.103 53.4412 211.194 53.4412H211.822C211.912 53.4412 211.982 53.4691 212.045 53.5249C212.101 53.5807 212.129 53.6575 212.129 53.7482V54.3344C212.359 54.0343 212.652 53.7831 213.001 53.5947C213.35 53.4063 213.804 53.3086 214.355 53.3086C214.934 53.3086 215.429 53.4342 215.834 53.6924C216.239 53.9436 216.546 54.2995 216.755 54.7461C216.965 55.1996 217.069 55.723 217.069 56.3161V60.0842C217.069 60.1749 217.041 60.2447 216.985 60.3075C216.93 60.3633 216.853 60.3912 216.762 60.3912H216.092C216.002 60.3912 215.932 60.3633 215.869 60.3075C215.813 60.2517 215.785 60.1749 215.785 60.0842V56.3789C215.785 55.7579 215.632 55.2694 215.332 54.9135C215.032 54.5646 214.585 54.3832 213.992 54.3832C213.441 54.3832 212.994 54.5576 212.659 54.9135C212.324 55.2694 212.157 55.7509 212.157 56.3789V60.0842C212.157 60.1749 212.129 60.2447 212.073 60.3075C212.017 60.3633 211.94 60.3912 211.85 60.3912H211.194V60.3912Z" fill="black"/>
<path d="M221.604 60.3904C221.101 60.3904 220.697 60.2927 220.389 60.1043C220.075 59.9159 219.852 59.6438 219.706 59.2879C219.566 58.939 219.489 58.5203 219.489 58.0388V54.508H218.45C218.359 54.508 218.289 54.4801 218.226 54.4243C218.17 54.3684 218.143 54.2917 218.143 54.201V53.7474C218.143 53.6567 218.17 53.5869 218.226 53.5241C218.282 53.4683 218.359 53.4404 218.45 53.4404H219.489V51.2074C219.489 51.1167 219.517 51.0469 219.573 50.9841C219.629 50.9283 219.706 50.9004 219.796 50.9004H220.424C220.515 50.9004 220.585 50.9283 220.648 50.9841C220.703 51.0399 220.731 51.1167 220.731 51.2074V53.4404H222.392C222.49 53.4404 222.567 53.4683 222.622 53.5241C222.678 53.5799 222.706 53.6567 222.706 53.7474V54.201C222.706 54.2917 222.678 54.3615 222.622 54.4243C222.567 54.4801 222.49 54.508 222.392 54.508H220.731V57.9411C220.731 58.3598 220.801 58.6878 220.948 58.932C221.087 59.1693 221.345 59.2949 221.708 59.2949H222.525C222.615 59.2949 222.685 59.3228 222.748 59.3786C222.804 59.4344 222.832 59.5112 222.832 59.6019V60.0834C222.832 60.1741 222.804 60.2439 222.748 60.3067C222.692 60.3625 222.615 60.3904 222.525 60.3904H221.604V60.3904Z" fill="black"/>
<path d="M226.525 60.5241C226.022 60.5241 225.597 60.4613 225.241 60.3357C224.885 60.2101 224.592 60.0565 224.368 59.8821C224.145 59.7007 223.978 59.5262 223.866 59.3448C223.754 59.1634 223.692 59.0238 223.685 58.9191C223.678 58.8215 223.706 58.7447 223.775 58.6889C223.845 58.633 223.915 58.6051 223.992 58.6051H224.592C224.634 58.6051 224.675 58.6121 224.703 58.6261C224.731 58.64 224.78 58.6749 224.829 58.7377C224.948 58.8633 225.073 58.9889 225.22 59.1145C225.359 59.2401 225.541 59.3448 225.75 59.4216C225.959 59.4983 226.218 59.5402 226.532 59.5402C226.985 59.5402 227.362 59.4564 227.655 59.282C227.948 59.1075 228.095 58.8494 228.095 58.5144C228.095 58.2911 228.032 58.1167 227.913 57.9771C227.795 57.8445 227.578 57.7259 227.271 57.6143C226.964 57.5096 226.546 57.398 226.008 57.2793C225.471 57.1537 225.052 57.0002 224.738 56.8188C224.424 56.6374 224.201 56.421 224.068 56.1628C223.936 55.9116 223.866 55.6186 223.866 55.2976C223.866 54.9696 223.964 54.6486 224.159 54.3416C224.355 54.0346 224.641 53.7834 225.024 53.588C225.401 53.3926 225.876 53.2949 226.448 53.2949C226.908 53.2949 227.306 53.3507 227.634 53.4694C227.962 53.588 228.234 53.7276 228.451 53.902C228.667 54.0764 228.827 54.2509 228.932 54.4184C229.037 54.5858 229.1 54.7324 229.106 54.844C229.113 54.9347 229.086 55.0045 229.023 55.0673C228.96 55.1231 228.89 55.151 228.806 55.151H228.248C228.185 55.151 228.137 55.1371 228.095 55.1092C228.053 55.0813 228.018 55.0533 227.983 55.0185C227.892 54.8998 227.788 54.7882 227.669 54.6696C227.55 54.5509 227.39 54.4602 227.202 54.3835C227.013 54.3067 226.755 54.2718 226.448 54.2718C226.001 54.2718 225.666 54.3625 225.443 54.5509C225.22 54.7393 225.108 54.9766 225.108 55.2557C225.108 55.4232 225.157 55.5767 225.255 55.7093C225.352 55.8419 225.541 55.9605 225.813 56.0721C226.092 56.1768 226.497 56.2954 227.041 56.421C227.627 56.5397 228.095 56.6932 228.43 56.8886C228.772 57.0839 229.009 57.3142 229.148 57.5724C229.288 57.8306 229.365 58.1306 229.365 58.4656C229.365 58.8424 229.26 59.1843 229.044 59.4913C228.827 59.8053 228.506 60.0496 228.081 60.231C227.655 60.4124 227.146 60.5241 226.525 60.5241Z" fill="black"/>
<path d="M231.151 60.3915C231.06 60.3915 230.99 60.3636 230.927 60.3077C230.872 60.2519 230.844 60.1752 230.844 60.0844V59.1215C230.844 59.0308 230.872 58.961 230.927 58.8982C230.983 58.8424 231.06 58.8145 231.151 58.8145H232.114C232.204 58.8145 232.281 58.8424 232.344 58.8982C232.407 58.954 232.435 59.0308 232.435 59.1215V60.0844C232.435 60.1752 232.407 60.2449 232.344 60.3077C232.281 60.3636 232.204 60.3915 232.114 60.3915H231.151Z" fill="black"/>
<path d="M42.9912 1.47932C42.5725 1.06065 42.0771 0.851311 41.5188 0.851311H33.2709C32.7126 0.851311 32.2312 1.06065 31.8404 1.47932C31.4496 1.898 31.2542 2.39343 31.2542 2.95167V6.14757C29.8517 4.41006 28.0583 2.95167 25.8673 1.7724C23.6832 0.593121 21.0455 0.00697412 17.9612 0.00697412C15.0445 0.00697412 12.4766 0.502409 10.2646 1.47932C8.04558 2.46321 6.21038 3.83787 4.75198 5.60329C3.29359 7.36872 2.17014 9.4621 1.38861 11.8695C0.600104 14.2839 0.153515 16.9494 0.0418677 19.8662C-0.0139559 21.3246 -0.0139559 22.8109 0.0418677 24.3251C0.153515 27.3536 0.600104 30.075 1.38861 32.4893C2.17014 34.9037 3.29359 36.9622 4.75198 38.6718C6.21038 40.3814 8.04558 41.7002 10.2646 42.6283C12.4766 43.5564 15.0445 44.0169 17.9612 44.0169C20.9339 44.0169 23.4459 43.5424 25.4905 42.5864C27.535 41.6304 29.2376 40.4302 30.5844 38.9649V44.6031C30.5844 46.9058 30.2634 48.727 29.6144 50.0738C28.9655 51.4205 28.0025 52.3765 26.7116 52.9347C25.4207 53.493 23.7948 53.7791 21.834 53.7791C20.0965 53.7791 18.7079 53.5279 17.6682 53.0185C16.6285 52.5161 15.8609 51.8811 15.3515 51.1275C14.8491 50.3738 14.4513 49.6551 14.1722 48.9852C13.9489 48.3642 13.6558 47.9316 13.286 47.6803C12.9232 47.4291 12.4905 47.3035 11.9811 47.3035H2.97958C2.42135 47.3035 1.91196 47.4989 1.46537 47.8897C1.01878 48.2804 0.823396 48.7829 0.87922 49.4039C0.935043 50.2482 1.2979 51.4205 1.97476 52.9347C2.64464 54.449 3.78205 55.9771 5.38 57.5193C6.97795 59.0614 9.14809 60.3802 11.9044 61.4757C14.6537 62.5713 18.1008 63.1156 22.2527 63.1156C26.9628 63.1156 30.9054 62.341 34.0733 60.7989C37.2413 59.2568 39.6417 57.0238 41.2676 54.107C42.8935 51.1902 43.7099 47.6315 43.7099 43.4238L43.6261 2.95167C43.6192 2.39343 43.4098 1.898 42.9912 1.47932ZM30.5774 24.7438C30.5216 26.3138 30.1866 27.8141 29.5656 29.2446C28.9445 30.6751 28.0095 31.8543 26.7465 32.7754C25.4835 33.7035 23.8437 34.164 21.827 34.164C19.6918 34.164 18.0101 33.7035 16.782 32.7754C15.5469 31.8474 14.6467 30.6332 14.0885 29.119C13.5302 27.6048 13.1883 25.9231 13.0767 24.0739C13.0209 22.783 13.0209 21.4642 13.0767 20.1174C13.1883 18.3241 13.5233 16.6703 14.0885 15.1561C14.6467 13.6419 15.5469 12.4208 16.782 11.4997C18.0171 10.5716 19.6988 10.111 21.827 10.111C23.8437 10.111 25.4835 10.5576 26.7465 11.4578C28.0095 12.358 28.9445 13.5163 29.5656 14.9468C30.1796 16.3773 30.5216 17.8775 30.5774 19.4475C30.6332 20.0686 30.6611 20.9478 30.6611 22.0992C30.6611 23.2436 30.6332 24.1298 30.5774 24.7438ZM78.7601 0.851311H75.1456C72.4521 0.851311 70.0796 1.3258 68.035 2.28178C65.9835 3.23776 64.26 4.58451 62.8574 6.32202V2.95167C62.8574 2.39343 62.648 1.898 62.2294 1.47932C61.8107 1.06065 61.3153 0.851311 60.757 0.851311H52.5091C51.9508 0.851311 51.4694 1.06065 51.0786 1.47932C50.6878 1.898 50.4925 2.39343 50.4925 2.95167V42.4957C50.4925 43.1168 50.6878 43.6192 51.0786 44.0099C51.4694 44.4007 51.9508 44.5961 52.5091 44.5961H61.3432C61.9572 44.5961 62.4666 44.4007 62.8574 44.0099C63.2482 43.6192 63.4435 43.1168 63.4435 42.4957V20.2012C63.4435 17.6751 64.1413 15.7283 65.5439 14.3536C66.9465 12.979 68.8794 12.2951 71.3496 12.2951H78.7532C79.3114 12.2951 79.7929 12.0998 80.1836 11.709C80.5744 11.3182 80.7698 10.8158 80.7698 10.1948V2.95167C80.7698 2.33761 80.5744 1.82822 80.1836 1.43746C79.7999 1.04669 79.3184 0.851311 78.7601 0.851311ZM123.859 8.88293C122.121 6.04988 119.679 3.86578 116.539 2.31667C113.399 0.774547 109.61 0 105.179 0C100.692 0 96.8749 0.774547 93.7348 2.31667C90.5947 3.8588 88.1525 6.04988 86.4149 8.88293C84.6774 11.716 83.7215 15.0654 83.554 18.9382C83.4982 20.0058 83.4703 21.2548 83.4703 22.6853C83.4703 24.1158 83.4982 25.3928 83.554 26.5162C83.7215 30.3332 84.6356 33.6686 86.2894 36.5296C87.9431 39.3905 90.3435 41.5886 93.4836 43.1377C96.6237 44.6798 100.524 45.4544 105.179 45.4544C109.777 45.4544 113.65 44.6798 116.79 43.1377C119.93 41.5956 122.33 39.3905 123.984 36.5296C125.638 33.6686 126.552 30.3332 126.72 26.5162C126.831 25.3928 126.887 24.1158 126.887 22.6853C126.887 21.2548 126.831 20.0058 126.72 18.9382C126.552 15.0724 125.596 11.716 123.859 8.88293ZM113.678 26.0906C113.566 29.3981 112.806 31.9102 111.403 33.6198C110 35.3294 107.921 36.1877 105.179 36.1877C102.429 36.1877 100.343 35.3363 98.9125 33.6198C97.482 31.9102 96.7074 29.3981 96.5958 26.0906C96.54 25.2462 96.512 24.1298 96.512 22.7272C96.512 21.3246 96.54 20.2012 96.5958 19.3638C96.7074 16.1121 97.482 13.614 98.9125 11.8765C100.343 10.139 102.429 9.26672 105.179 9.26672C107.928 9.26672 110 10.139 111.403 11.8765C112.806 13.614 113.559 16.1121 113.678 19.3638C113.734 20.2081 113.762 21.3316 113.762 22.7272C113.762 24.1298 113.734 25.2532 113.678 26.0906ZM178.852 32.1056L165.657 5.42186L163.584 1.22812C163.263 0.572188 162.593 0.16049 161.868 0.16049H155.818C155.085 0.16049 154.422 0.572188 154.101 1.22812L152.029 5.42186L145.672 18.2683L137.187 1.10252C136.866 0.44659 136.196 0.0348919 135.47 0.0348919H126.175C124.773 0.0348919 123.845 1.49328 124.438 2.76326L138.645 33.0964L142.162 40.6117L143.99 44.3379C144.074 44.5123 144.178 44.6589 144.297 44.7845C145.19 45.5939 146.711 45.4195 147.298 44.2193L151.624 35.3922L152.58 33.3616L158.846 19.9779L170.241 44.31C170.925 45.7684 172.99 45.7893 173.702 44.3379L178.866 33.8012C179.117 33.2709 179.117 32.6429 178.852 32.1056Z" fill="url(#paint0_linear_523_5436)"/>
<path d="M187.936 13.1637L187.846 4.44128C187.853 4.33661 187.797 4.24589 187.713 4.19704L181.098 0.631311C180.847 0.491752 180.972 0.107966 181.258 0.142856L194.265 0.163789C194.447 0.184723 194.551 0.380101 194.468 0.540594L188.439 13.3033C188.306 13.5545 187.915 13.4498 187.936 13.1637Z" fill="url(#paint1_linear_523_5436)"/>
<path d="M180.798 28.3525L180.449 19.5533C180.456 19.4487 180.4 19.358 180.316 19.3091L173.617 15.9946C173.366 15.855 173.492 15.4712 173.778 15.5061L186.973 15.5271C187.155 15.548 187.259 15.7434 187.176 15.9039L181.286 28.4851C181.168 28.7433 180.784 28.6386 180.798 28.3525Z" fill="url(#paint2_linear_523_5436)"/>
<defs>
<linearGradient id="paint0_linear_523_5436" x1="130.126" y1="-25.8876" x2="40.4056" y2="85.743" gradientUnits="userSpaceOnUse">
<stop stop-color="#AFFCAF"/>
<stop offset="0.0346" stop-color="#9EF9B6"/>
<stop offset="0.1244" stop-color="#79F2C6"/>
<stop offset="0.2216" stop-color="#59ECD4"/>
<stop offset="0.3263" stop-color="#3FE7DF"/>
<stop offset="0.4411" stop-color="#2BE4E8"/>
<stop offset="0.5715" stop-color="#1DE1EE"/>
<stop offset="0.7305" stop-color="#14DFF2"/>
<stop offset="1" stop-color="#12DFF3"/>
</linearGradient>
<linearGradient id="paint1_linear_523_5436" x1="180.955" y1="6.78894" x2="194.487" y2="6.78894" gradientUnits="userSpaceOnUse">
<stop stop-color="#2980B9"/>
<stop offset="0.00262131" stop-color="#2A81BA"/>
<stop offset="0.0664" stop-color="#42A0D1"/>
<stop offset="0.1332" stop-color="#55B7E3"/>
<stop offset="0.2046" stop-color="#63C8F0"/>
<stop offset="0.2829" stop-color="#6AD2F8"/>
<stop offset="0.3812" stop-color="#6DD5FA"/>
<stop offset="0.6391" stop-color="#6FD6FA"/>
<stop offset="0.732" stop-color="#76D7FA"/>
<stop offset="0.7983" stop-color="#81DBFB"/>
<stop offset="0.8518" stop-color="#92E0FB"/>
<stop offset="0.8977" stop-color="#A8E6FC"/>
<stop offset="0.9383" stop-color="#C4EEFD"/>
<stop offset="0.9741" stop-color="#E3F7FE"/>
<stop offset="1" stop-color="white"/>
</linearGradient>
<linearGradient id="paint2_linear_523_5436" x1="173.488" y1="22.0697" x2="187.211" y2="22.0697" gradientUnits="userSpaceOnUse">
<stop stop-color="#D939F2"/>
<stop offset="0.4442" stop-color="#D739F2"/>
<stop offset="0.6042" stop-color="#D037F1"/>
<stop offset="0.7182" stop-color="#C535EF"/>
<stop offset="0.8104" stop-color="#B432ED"/>
<stop offset="0.8894" stop-color="#9E2EEA"/>
<stop offset="0.9581" stop-color="#832AE7"/>
<stop offset="0.9992" stop-color="#6F26E4"/>
</linearGradient>
</defs>
</svg>
