<svg xmlns="http://www.w3.org/2000/svg" xmlns:xlink="http://www.w3.org/1999/xlink" id="uuid-ad9ff10c-03f4-46c5-bd6b-ec12c236b399" viewBox="0 0 270.85 124.7"><defs><linearGradient id="uuid-5a739e95-fb01-44c3-9b8c-3371a297c53b" x1="162.14" y1="36.22" x2="270.35" y2="36.22" gradientUnits="userSpaceOnUse"><stop offset="0" stop-color="#e1e8f6"></stop><stop offset=".51" stop-color="#c9d8f0"></stop><stop offset="1" stop-color="#b0c4e7"></stop></linearGradient><linearGradient id="uuid-ea8594c7-05d9-4c97-8a8c-ead5b3539496" x1="161.64" y1="36.13" x2="270.85" y2="36.13" gradientUnits="userSpaceOnUse"><stop offset="0" stop-color="#e71d73" stop-opacity=".7"></stop><stop offset=".31" stop-color="#2fac66" stop-opacity=".7"></stop><stop offset=".61" stop-color="#36a9e1" stop-opacity=".7"></stop><stop offset=".87" stop-color="#fcea10" stop-opacity=".7"></stop></linearGradient></defs><g id="uuid-20a12b0b-e1d0-4647-95d8-39ac728e5759"><g><path d="M260.45,31.48c-2.89-.59-5.81-1.09-8.74-1.47-.2-.03-.41-.05-.61-.07,.54-2.93,.53-5.97,.13-8.93-.23-1.81-.63-3.58-1.11-5.34-.51-1.75-1.11-3.45-1.88-5.15l-.18-.4-.44,.04c-1.85,.17-3.62,.48-5.39,.9-1.76,.44-3.5,.97-5.18,1.66-1.68,.69-3.3,1.53-4.81,2.53-.75,.51-1.47,1.07-2.15,1.66-.21,.18-.4,.38-.6,.58-.49-.76-1-1.51-1.51-2.25-1.69-2.42-3.49-4.75-5.36-7.03-1.88-2.28-3.79-4.49-5.84-6.66l-.95-1.01-.93,1.03c-2,2.23-3.86,4.5-5.68,6.83-1.81,2.34-3.55,4.73-5.18,7.2-.36,.56-.72,1.12-1.08,1.69-.12-.11-.24-.23-.36-.33-.7-.58-1.43-1.11-2.19-1.6-1.54-.97-3.18-1.76-4.88-2.4-1.7-.65-3.45-1.13-5.23-1.52-1.78-.37-3.56-.63-5.41-.75l-.44-.03-.17,.41c-.72,1.72-1.28,3.43-1.73,5.2-.43,1.77-.79,3.55-.96,5.37-.3,2.87-.25,5.79,.31,8.61-.4,.06-.8,.11-1.2,.17-2.92,.46-5.82,1.04-8.69,1.71-2.88,.67-5.72,1.41-8.57,2.32l-1.27,.4,.5,1.24c1.11,2.77,2.31,5.43,3.6,8.09,1.29,2.65,2.66,5.26,4.14,7.81,1.5,2.55,3.1,5.04,4.86,7.44,.89,1.19,1.8,2.37,2.79,3.5,.48,.57,1.01,1.11,1.51,1.67,.54,.53,1.05,1.08,1.62,1.58,1.1,1.04,2.32,1.98,3.63,2.8,.65,.43,1.35,.77,2.05,1.13,.72,.3,1.42,.61,2.17,.84,1.48,.48,3.01,.79,4.57,.9,1.56,.1,3.12-.01,4.64-.3,3.05-.58,5.87-1.88,8.39-3.53,1.26-.83,2.45-1.75,3.58-2.74,1.13-1.01,2.18-2.03,3.17-3.24l.72-.88-1.02-.45c-2.63-1.15-5.41-1.95-8.24-2.32-2.83-.36-5.71-.33-8.51,.12l-1.05,.17c-.35,.07-.69,.15-1.04,.22-.69,.13-1.37,.34-2.05,.52-.67,.21-1.35,.43-2.01,.66-.66,.26-1.32,.49-1.96,.79-1.3,.55-2.53,1.2-3.8,1.75-.78,.35-1.59,.65-2.41,.9-.22-.22-.43-.45-.66-.66-.47-.53-.97-1.03-1.42-1.58-.93-1.07-1.8-2.21-2.65-3.36-1.68-2.32-3.22-4.75-4.67-7.24-2.66-4.59-5.06-9.39-7.12-14.27,5.08-1.56,10.3-2.87,15.55-3.79,2.85-.49,5.72-.89,8.59-1.1,2.2-.15,4.4-.21,6.58-.07-.01,.05-.03,.1-.04,.15-.22,.72-.37,1.47-.54,2.21-.12,.75-.27,1.5-.32,2.27-.09,.76-.08,1.54-.08,2.31,.05,.76,.09,1.52,.22,2.28,.23,1.51,.59,3,1.19,4.41,.58,1.41,1.35,2.75,2.27,3.95,1.86,2.41,4.29,4.28,6.94,5.63,2.65,1.34,5.5,2.24,8.41,2.62-1.43-.31-2.82-.78-4.17-1.32-1.35-.55-2.66-1.18-3.89-1.93-2.46-1.49-4.68-3.4-6.25-5.74-.79-1.16-1.44-2.42-1.91-3.74-.48-1.31-.75-2.7-.89-4.09-.09-.69-.08-1.4-.11-2.1,.02-.69,.03-1.38,.14-2.07,.07-.69,.23-1.38,.36-2.06,.18-.68,.34-1.37,.57-2.04,.06-.18,.12-.35,.18-.53,.68,.07,1.35,.2,2.02,.31,.68,.16,1.38,.29,2.04,.52,.68,.19,1.32,.46,1.96,.73,.63,.31,1.28,.61,1.88,.98,2.44,1.4,4.54,3.4,6,5.84,1.47,2.43,2.3,5.24,2.62,8.11,.3,2.87,.19,5.82-.43,8.69,.82-2.81,1.16-5.78,1.02-8.73-.15-2.95-.85-5.93-2.29-8.59-.71-1.33-1.61-2.57-2.65-3.68-1.04-1.12-2.25-2.05-3.52-2.87-.63-.42-1.31-.77-1.97-1.13-.69-.32-1.39-.65-2.12-.88-.72-.27-1.45-.45-2.19-.65-.58-.12-1.17-.25-1.76-.35,1.79-4.56,4.37-8.86,7.15-12.96,2.99-4.38,6.29-8.62,9.79-12.6,3.6,3.86,7,8,10.11,12.28,3.02,4.19,5.82,8.6,7.75,13.32-.68,.12-1.35,.29-2.02,.45-.73,.22-1.46,.41-2.17,.71-.72,.25-1.41,.6-2.09,.94-.66,.38-1.32,.74-1.94,1.18-1.25,.85-2.44,1.83-3.44,2.97-1.01,1.14-1.87,2.4-2.54,3.75-1.37,2.7-1.99,5.7-2.05,8.65-.06,2.96,.36,5.91,1.26,8.7-.69-2.84-.88-5.79-.66-8.67,.25-2.88,1-5.71,2.4-8.18,1.4-2.47,3.43-4.53,5.84-6,.59-.39,1.22-.7,1.85-1.03,.64-.28,1.27-.57,1.94-.78,.66-.24,1.35-.39,2.03-.57,.7-.14,1.38-.29,2.09-.38,.06,0,.12-.02,.17-.02,.46,1.3,.81,2.63,1.03,3.97,.13,.69,.17,1.37,.22,2.06,0,.7,.02,1.39-.05,2.09-.11,1.39-.37,2.76-.82,4.09-.45,1.32-1.08,2.58-1.85,3.76-1.53,2.38-3.64,4.38-5.98,6.05-1.18,.83-2.42,1.57-3.71,2.24-1.29,.66-2.62,1.27-4,1.73,2.84-.7,5.57-1.86,8.11-3.38,2.53-1.53,4.84-3.49,6.63-5.93,.89-1.22,1.64-2.55,2.2-3.97,.56-1.42,.92-2.91,1.11-4.43,.11-.76,.13-1.52,.16-2.28-.03-.77-.05-1.54-.16-2.3-.17-1.34-.46-2.66-.85-3.94,2.11-.18,4.24-.17,6.37-.09,2.88,.13,5.75,.46,8.62,.87,5.27,.78,10.53,1.95,15.65,3.37-1.93,4.93-4.2,9.8-6.73,14.46-1.38,2.53-2.85,5-4.47,7.37-.82,1.17-1.65,2.33-2.56,3.43-.44,.56-.92,1.08-1.37,1.62-.21,.22-.42,.45-.64,.68-.83-.23-1.64-.51-2.43-.83-1.29-.52-2.53-1.13-3.85-1.65-.65-.28-1.32-.5-1.98-.74-.67-.22-1.35-.42-2.03-.61-.69-.16-1.37-.35-2.07-.46-.35-.06-.69-.14-1.04-.19l-1.05-.14c-2.81-.38-5.68-.32-8.51,.11-2.82,.45-5.58,1.32-8.17,2.54l-1.01,.47,.74,.86c1.02,1.18,2.1,2.18,3.25,3.15,1.16,.96,2.37,1.85,3.66,2.64,2.57,1.58,5.43,2.8,8.49,3.3,1.53,.25,3.09,.31,4.64,.17,1.55-.15,3.08-.5,4.54-1.02,.74-.25,1.44-.58,2.14-.9,.69-.37,1.38-.74,2.02-1.18,1.29-.86,2.48-1.83,3.56-2.9,.56-.52,1.06-1.08,1.58-1.62,.49-.57,1-1.12,1.47-1.71,.96-1.15,1.83-2.36,2.7-3.57,1.69-2.45,3.23-4.98,4.65-7.57,1.42-2.59,2.71-5.24,3.93-7.93,1.21-2.69,2.34-5.39,3.38-8.19l.46-1.25-1.28-.37c-2.87-.83-5.73-1.49-8.63-2.09Zm-75.93,31.44c1.32-.46,2.6-1.05,3.9-1.51,2.59-.96,5.3-1.59,8.03-1.88,2.73-.31,5.48-.17,8.17,.25,2.29,.39,4.52,1.08,6.64,2-.71,.73-1.48,1.43-2.26,2.09-1.09,.9-2.24,1.74-3.43,2.48-2.4,1.48-5.02,2.56-7.72,3.02-1.35,.23-2.72,.3-4.08,.2-1.36-.11-2.69-.41-3.98-.85-.65-.21-1.27-.5-1.9-.77-.6-.32-1.2-.62-1.76-1.01-1.15-.74-2.23-1.62-3.25-2.58-.26-.23-.51-.47-.75-.72,.82-.19,1.63-.43,2.42-.72Zm15.01-39.63c-1.04,2.05-2,4.17-2.76,6.37-2.42-.25-4.85-.25-7.26-.16-2.46,.11-4.91,.36-7.34,.7-.08-1.05-.12-2.09-.09-3.14,.03-1.78,.21-3.55,.48-5.29,.29-1.75,.66-3.48,1.15-5.18,.44-1.55,.95-3.11,1.56-4.57,1.58,.1,3.2,.33,4.78,.63,1.74,.31,3.45,.75,5.13,1.27,1.68,.54,3.33,1.18,4.9,2,.79,.4,1.55,.86,2.3,1.34,.14,.09,.28,.2,.42,.3-1.16,1.86-2.26,3.77-3.27,5.73Zm51.31,6.62c-2.65-.32-5.31-.53-7.99-.58-2.33-.03-4.68,.04-7.02,.33-.85-2.4-1.95-4.68-3.16-6.89-.96-1.73-1.98-3.41-3.06-5.06,.23-.17,.45-.35,.68-.51,.73-.5,1.48-.98,2.26-1.4,1.55-.86,3.18-1.55,4.84-2.13,1.67-.57,3.37-1.06,5.1-1.41,1.57-.34,3.18-.61,4.76-.76,.65,1.45,1.21,2.99,1.69,4.52,.54,1.69,.95,3.41,1.29,5.15,.32,1.74,.55,3.5,.63,5.28,.07,1.15,.05,2.3-.02,3.46Zm-.38,34.09c-.99,.99-2.05,1.89-3.18,2.67-.56,.41-1.15,.73-1.73,1.06-.62,.29-1.23,.6-1.88,.82-1.28,.48-2.6,.81-3.96,.96-1.35,.14-2.73,.11-4.08-.09-2.72-.39-5.37-1.4-7.8-2.81-1.22-.71-2.39-1.51-3.5-2.38-.8-.63-1.59-1.32-2.32-2.02,2.09-.98,4.3-1.73,6.58-2.18,2.67-.5,5.42-.71,8.16-.48,2.73,.22,5.45,.77,8.07,1.66,1.31,.42,2.61,.97,3.94,1.4,.8,.26,1.61,.48,2.44,.65-.24,.25-.48,.5-.73,.74Z" fill="url(#uuid-5a739e95-fb01-44c3-9b8c-3371a297c53b)" stroke="url(#uuid-ea8594c7-05d9-4c97-8a8c-ead5b3539496)" stroke-miterlimit="10" stroke-width=".75"></path><g><path d="M18.57,106.14c-.17,0-.3-.03-.66-.4,1.88-1.32,3.3-2.64,4.09-4.59,.83-1.98,.66-3.86-.43-5.64-1.55-2.48-3.86-3.56-6.73-3.6-1.65,0-2.67,.46-3.4,1.39,2.01,7.82,3.46,13.66-3.53,15.45-2.34,.59-3.93,1.25-6.3,2.61-.56-1.25,.73-1.45,1.52-1.88,1.42-.76,3.76-1.25,5.38-1.85,5.38-1.98,3.66-6.47,2.21-13.04-.26,.66-.5,1.39-.69,2.24-.76,.03-.76-2.08,.36-3.66-.17-.76-.3-1.55-.43-2.34,.33-.23,.92,.33,1.12,1.09l.1,.43c.1-.07,.17-.13,.26-.2,2.57-1.65,5.35-1.72,7.85-.17,2.54,1.55,3.86,3.93,4.09,7.13,.2,2.74-3.07,6.83-4.82,7.03Z" fill="#1d1d1b" stroke="#1d1d1b" stroke-miterlimit="10"></path><path d="M26.02,94.85c-.2,.96-.33,1.58-.43,2.24-.33,2.21,.03,5.41-.3,7.62-.03,.33-.23,.66-.69,.96-.13-.03-.26-.03-.43-.07,.07-.83,.13-1.62,.23-2.41,.23-2.11,.1-5.18,.36-7.29,.07-.56,.2-1.16,.43-1.68,.33-.79,.76-.89,1.32-.23,.83,.99,1.58,2.08,2.44,3.07,1.35,1.62,3.1,4.16,4.52,5.68,.36,.43,.83,.76,1.35,1.22-.1-.59-.13-1.09-.23-1.55-.53-3.63,.89-10.36,2.74-13.6,.59-1.06,1.12-1.29,1.72-.83-3.6,4.55-4.29,12.87-2.64,18.28-.73,.3-2.74-1.68-4.55-3.8-1.49-1.72-3.2-4.55-4.65-6.34-.3-.36-.66-.69-1.19-1.29Z" fill="#1d1d1b" stroke="#1d1d1b" stroke-miterlimit="10"></path><path d="M41.04,106.57c-.23-.13-.4-.59-.4-.86-.13-2.01-.33-4.06-.43-6.14-.07-1.91,0-3.86,.03-5.74,.07-1.19,.2-2.97,.36-4.13,.03-.23,.3-.79,.53-.63,.3,.23,.46,.59,.4,.83-.43,3.23-.5,7.16-.33,10.43,.1,1.88,.1,3.8,.1,5.68,0,.1,.1,.76-.26,.56Zm12.31-2.77c-.69,.89-1.49,1.19-2.31,1.29-1.06,.1-2.08,.2-3.07,.03-3.53-.53-5.64-2.48-5.25-6.34,.3-2.71,1.78-4.79,4.36-5.88,1.29-.56,2.41-.17,3.5,.53,.5,.36,.99,.86,1.39,1.35,.2,.23,.56,.83,.36,.83-.26,0-1.49-.99-2.28-1.49-1.55-.92-3.37-.3-4.62,.99-1.32,1.35-1.98,3.04-1.88,4.85,.07,1.88,1.25,3.17,3.04,3.83,1.91,.69,3.86,.79,5.84,.13,.23-.1,1.19-.5,.92-.13Z" fill="#1d1d1b" stroke="#1d1d1b" stroke-miterlimit="10"></path><path d="M53.81,95.38c.43-.79,1.09-1.25,1.92-1.58,2.05-.73,4.16-1.06,6.34-.99,2.94,.1,5.51,1.12,7.26,3.63,1.19,1.65,1.88,3.6,1.19,5.61-.79,2.34-3.07,4.19-6.14,3.6-1.12-.23-2.21-.56-3.07-1.39-.59-.59-1.12-1.29-1.65-1.95-.26-.3-.53-.63-.82-1.02l-1.35,4.03s0,.1-.03,.13c-.26,.23-.53,.92-.76,.66-.23-.26-.2-.59-.1-.86,.26-1.09,.66-2.18,.96-3.27,.17-.66,.26-1.39,.43-2.08,.03-.2,.23-.56,.3-.56,.23,.03,.53,.17,.66,.33,.89,1.22,1.65,2.61,2.71,3.66,1.32,1.35,3.04,2.01,4.92,1.39,2.18-.73,3.8-2.71,3.1-5.31-.69-2.57-2.44-4.16-4.82-5.12-2.91-1.19-5.78-.76-8.65,.23-.76,.26-1.52,.53-2.38,.86Z" fill="#1d1d1b" stroke="#1d1d1b" stroke-miterlimit="10"></path><path d="M84.47,101.75c-.76,.56-1.32,.86-2.05,1.35-.1,.07-.43,.07-.5-.23,.46-.43,1.62-1.52,2.11-1.88-1.29-2.31-1.65-8.15-1.02-11.78,.43-2.74,1.45-5.18,3.83-6.96,1.75-1.35,5.38-1.82,6.77,.53,2.87,4.55-2.15,13.76-8.32,18.48,3.99,5.08,8.15,4.98,8.85-1.39,.33,.17,.83,.13,.79,.73-.33,6.07-6.14,6.93-10.1,1.78-.13-.17-.2-.33-.36-.63Zm.36-1.45c7.92-5.54,12.61-19.6,4.22-18.05-2.21,.43-3.43,2.08-4.29,3.93-1.35,2.74-1.35,5.61-1.15,8.48,.17,1.92,.5,3.56,1.22,5.64Z" fill="#1d1d1b" stroke="#1d1d1b" stroke-miterlimit="10"></path><path d="M106.91,108.78c.26,.63-.07,.96-.5,1.06-1.19,.3-2.38,.53-3.56,.69-.76,.13-1.58,.17-2.38,.07-1.25-.2-2.57-.4-3.7-.92-1.39-.63-2.05-1.98-1.88-3.99,.17-2.05,1.35-3.6,2.51-5.18,.89-1.15,2.11-1.81,3.3-2.57,.5-.3,1.09-.46,1.72-.69-1.06-1.42-1.16-3-1.16-4.62,.03-1.19,.99-2.64,1.85-1.95-.96,1.06-1.29,2.01-.96,3.76,.17,.83,.69,1.88,1.02,2.64,.13,.07,.33,0,.53,0,2.15-.33,5.45,.59,4.92,2.41-.07,.17-.23,.36-.4,.43-.92,.4-1.85,.36-2.81-.13-1.32-.69-1.91-1.42-2.61-1.72-3.5,1.29-5.51,3.4-6.7,6.27-.33,.79-.36,1.78-.33,2.64,.07,1.22,1.12,1.72,2.08,2.08,2.61,1.02,5.28,.73,7.95,.2,.2-.03,.36-.17,.53-.23,.2-.1,.36-.17,.56-.23Zm.46-9.44c.36,0,.63-.13,.2-.46-.99-.82-2.41-1.06-3.5-1.09,.63,.66,2.77,1.55,3.3,1.55Z" fill="#1d1d1b" stroke="#1d1d1b" stroke-miterlimit="10"></path><path d="M116.25,104.72c3.37-4.39,5.05-6.9,2.87-11.55-.76-1.58-1.88-2.87-3.76-2.94-2.61-.17-4.09,1.25-5.64,2.94-.13,.17-.56,.33-.76,0,.92-3.24,6.04-5.28,8.85-3.14,4.62,3.47,4.13,10.46-.63,14.82-.4,.36-.86-.07-.92-.13Z" fill="#1d1d1b" stroke="#1d1d1b" stroke-miterlimit="10"></path><path d="M131.16,92.04c-.3-.79-.56-1.42-.76-2.08-.43-1.45-.76-2.38-1.06-3.86-.66-3.63,3.27-5.38,6.96-4.13,.66,.23,1.39,.66,1.09,.99-.63-.1-1.32-.23-1.98-.3-3.4-.46-6.01,1.19-5.12,3.86,1.02,2.97,1.95,5.45,2.74,8.45,.66,2.64,1.09,5.28,1.52,7.95,.2,1.22-.46,2.01-1.52,2.31-2.11,.53-4.79,.63-7.06,.07-3.27-.79-5.15-5.08-3.53-8.45,1.58-3.37,4.92-5.54,8.71-4.82Zm2.38,9.11c-.3-1.48-.76-3.66-1.25-5.84-1.19-5.41-8.61-1.85-9.57,3.76-.36,2.31,1.25,4.65,3.17,5.15,1.91,.49,4.22,.79,6.01,.26,1.65-.5,1.95-.83,1.65-3.33Z" fill="#1d1d1b" stroke="#1d1d1b" stroke-miterlimit="10"></path><path d="M147.43,98.45c-.07,3.66,.3,7.16,.3,11.12,0,.46-.5,.36-.63,.36-.13-2.05-.23-4.09-.43-6.8-.17-2.11-.4-4.16-.66-6.07,.33-.59,.59-1.09,.89-1.58,1.22-2.01,2.84-3.6,5.05-4.42,2.38-.89,4.85-1.42,7.29-.36,2.48,1.12,4.65,2.67,5.45,5.51,.69,2.44-.07,4.59-1.62,6.47-2.15,2.64-5.25,2.05-7.92,1.49-2.64-.56-5.51-3.23-7.72-5.71Zm16.73-.46c-.17-1.55-.5-2.9-1.58-3.99-1.39-1.39-2.84-2.71-4.88-2.97-2.54-.33-4.95,.17-7,1.62-1.22,.86-2.05,2.11-2.97,3.3-.3,.36-.26,1.25,0,1.62,.63,.89,1.29,1.62,2.08,2.38,2.24,2.05,4.72,3.8,7.92,3.93,1.02,.03,2.18-.03,3.13-.46,2.31-1.02,2.94-3.24,3.3-5.41Z" fill="#1d1d1b" stroke="#1d1d1b" stroke-miterlimit="10"></path><path d="M168.52,94.75c0,1.12-.66,2.57-.82,1.19-.03-1.75-.07-4.49-.03-6.24,0-.3,.33-.79,.5-.83,.36-.07,.4,.46,.43,.73,0,1.72-.03,3.43-.07,5.15Z" fill="#1d1d1b" stroke="#1d1d1b" stroke-miterlimit="10"></path><path d="M171.06,88.61c-.4,.26-.69-.07-.86-.83-.17-1.19,.5-1.98,1.39-2.54,1.91-1.32,4.03-1.98,6.4-1.65,2.38,.33,4.46,2.9,4.26,5.38-.2,2.18-.56,2.97-2.57,5.38,.96,.83,1.98,1.55,2.84,2.44,1.72,1.85,2.05,5.18,.46,6.7-.96,.92-2.34,1.65-3.66,1.98-2.21,.59-4.52,.53-6.73-.26-.92-.33-2.64-1.02-2.41-1.88,4.82,1.45,5.91,2.21,9.87,.92,1.39-.43,2.71-1.22,2.9-2.9,.2-1.91-.46-3.5-1.95-4.72-1.29-1.09-2.64-1.78-4.19-.56-.63,.56-1.35,.73-1.75,.13,.17-.76,.63-.66,2.54-1.75,.66-.36,1.35-.76,1.85-1.29,1.35-1.49,2.21-3.17,1.78-5.31-.33-1.78-1.75-3.04-3.57-3.27-3.3-.4-7.69,1.12-6.6,4.03Z" fill="#1d1d1b" stroke="#1d1d1b" stroke-miterlimit="10"></path><path d="M187.16,105.34c.03,2.18-.86,.53-.76-1.65,.1-2.48,.2-11.95,.4-14.42,.03-.46,.3-.53,.46-.56,.43-.07,.5,.07,.5,.59,0,.56-.1,1.12-.13,1.68-.1,2.54-.1,6.4-.26,8.94-.07,1.65-.23,3.76-.2,5.41Z" fill="#1d1d1b" stroke="#1d1d1b" stroke-miterlimit="10"></path><path d="M197.1,104.72c3.37-4.39,5.05-6.9,2.87-11.55-.76-1.58-1.88-2.87-3.76-2.94-2.61-.17-4.09,1.25-5.64,2.94-.13,.17-.56,.33-.76,0,.92-3.24,6.04-5.28,8.85-3.14,4.62,3.47,4.12,10.46-.63,14.82-.4,.36-.86-.07-.92-.13Z" fill="#1d1d1b" stroke="#1d1d1b" stroke-miterlimit="10"></path><path d="M205.25,101.75c-.76,.56-1.32,.86-2.05,1.35-.1,.07-.43,.07-.5-.23,.46-.43,1.62-1.52,2.11-1.88-1.29-2.31-1.65-8.15-1.02-11.78,.43-2.74,1.45-5.18,3.83-6.96,1.75-1.35,5.38-1.82,6.77,.53,2.87,4.55-2.15,13.76-8.32,18.48,3.99,5.08,8.15,4.98,8.84-1.39,.33,.17,.83,.13,.79,.73-.33,6.07-6.14,6.93-10.1,1.78-.13-.17-.2-.33-.36-.63Zm.36-1.45c7.92-5.54,12.61-19.6,4.22-18.05-2.21,.43-3.43,2.08-4.29,3.93-1.35,2.74-1.35,5.61-1.16,8.48,.17,1.92,.5,3.56,1.22,5.64Z" fill="#1d1d1b" stroke="#1d1d1b" stroke-miterlimit="10"></path><path d="M216.6,103.79c-.26-.59,.83,.2,3.14,.56,5.02,.79,6.6,.07,7.82-4.55,.43-1.58,.66-3.17,.23-4.75-.59-2.31-2.94-5.21-5.91-5.28-1.16-.03-2.11,.2-3.1,.56-.17,.1-.3,.26-.43,.4-.23,.2-.43,.43-.66,.63-.07-.07-.17-.13-.26-.17,.17-.33,.23-.73,.5-.99,1.45-1.25,3.13-1.62,5.02-1.16,.86,.2,1.75,.53,2.44,1.02,.69,.46,1.32,1.12,1.82,1.81,1.68,2.38,2.01,4.98,1.29,7.76-.4,1.49-.76,2.94-1.85,4.03-2.08,2.08-3.93,2.11-7.49,1.35-.83-.17-2.08-.2-2.54-1.22Z" fill="#1d1d1b" stroke="#1d1d1b" stroke-miterlimit="10"></path></g><g><path d="M7.86,24.71c0-.68-.03-1.26-.1-1.75s-.21-.88-.45-1.18c-.23-.3-.56-.52-.99-.66-.43-.14-1-.21-1.71-.21-.48,0-1.06,.03-1.76,.08-.7,.05-1.42,.13-2.17,.25l-.22-1.8c2.13-.55,3.96-.96,5.49-1.22s2.79-.39,3.79-.39,1.69,.13,2.21,.38c.51,.25,.89,.63,1.13,1.13,.24,.5,.38,1.11,.42,1.84,.04,.72,.07,1.55,.07,2.48,0,.06,0,.54-.02,1.43-.01,.9-.04,2.09-.08,3.57-.04,1.48-.08,3.21-.13,5.17s-.11,4.04-.17,6.24c-.07,2.19-.14,4.45-.23,6.77-.09,2.32-.19,4.57-.29,6.76-.11,2.19-.22,4.26-.35,6.21-.12,1.96-.26,3.67-.4,5.13,1.39-.2,2.7-.35,3.93-.45,1.23-.09,2.38-.14,3.43-.14,1.49,0,2.89,.04,4.18,.12,1.3,.08,2.58,.12,3.83,.12,.88,0,1.67-.13,2.36-.39,.69-.26,1.28-.72,1.77-1.37s.9-1.54,1.23-2.65c.33-1.12,.58-2.53,.75-4.26l1.89,.15c-.01,2.55-.17,4.65-.47,6.29-.3,1.64-.72,2.94-1.27,3.89-.55,.95-1.22,1.61-2.01,1.98-.79,.37-1.69,.55-2.71,.55-.77,0-1.62-.07-2.54-.22-.93-.15-1.94-.31-3.03-.49-1.09-.18-2.28-.34-3.55-.49-1.27-.15-2.65-.22-4.13-.22-1.32,0-2.75,.08-4.29,.25-1.54,.17-3.12,.45-4.75,.84l-.39-.04c.25-1.98,.46-4.12,.64-6.4,.18-2.28,.33-4.65,.46-7.12,.12-2.46,.23-4.98,.32-7.56,.09-2.58,.15-5.16,.2-7.74,.04-2.58,.07-5.12,.09-7.63,.01-2.51,.02-4.92,.02-7.26Z" fill="#1d1d1b"></path><path d="M38.91,55.28c0-1.46,.15-2.95,.46-4.45,.3-1.51,.75-2.97,1.35-4.38,.59-1.41,1.33-2.74,2.21-3.98,.88-1.24,1.89-2.32,3.03-3.25,1.14-.93,2.42-1.66,3.82-2.19,1.4-.54,2.93-.8,4.58-.8,1.85,0,3.5,.39,4.92,1.17s2.62,1.81,3.6,3.1c.97,1.28,1.71,2.74,2.21,4.38,.5,1.64,.75,3.31,.75,5.02,0,1.46-.15,2.95-.46,4.45-.3,1.51-.76,2.97-1.36,4.38-.6,1.41-1.34,2.74-2.22,3.98-.88,1.24-1.89,2.32-3.03,3.25-1.14,.93-2.42,1.66-3.82,2.19-1.41,.54-2.93,.8-4.58,.8-1.85,0-3.5-.39-4.92-1.17-1.43-.78-2.62-1.81-3.59-3.1-.96-1.28-1.69-2.74-2.19-4.38-.5-1.64-.75-3.31-.75-5.02Zm5.19-2.06c0,.99,.08,1.98,.23,3,.15,1.01,.39,1.99,.71,2.93,.32,.94,.71,1.82,1.18,2.64,.47,.82,1.03,1.53,1.67,2.14s1.37,1.09,2.17,1.43,1.69,.52,2.66,.52c1.06,0,1.99-.23,2.79-.68,.8-.46,1.5-1.06,2.09-1.81,.59-.75,1.07-1.62,1.46-2.59,.38-.97,.69-1.97,.92-3.01,.23-1.04,.39-2.06,.49-3.07,.09-1.01,.14-1.95,.14-2.8,0-1-.08-2-.23-3.01-.15-1.01-.39-1.98-.71-2.91-.32-.93-.71-1.81-1.18-2.63-.47-.82-1.03-1.53-1.67-2.13-.65-.6-1.37-1.08-2.17-1.42-.8-.35-1.69-.52-2.66-.52-1.06,0-1.99,.23-2.79,.67-.8,.45-1.5,1.05-2.09,1.8-.59,.75-1.07,1.62-1.46,2.59-.38,.97-.69,1.97-.92,3-.23,1.03-.4,2.05-.49,3.07-.09,1.02-.14,1.95-.14,2.79Z" fill="#1d1d1b"></path><path d="M80.38,40.57c0,.99-.03,2.04-.1,3.16-.07,1.12-.15,2.26-.24,3.42-.09,1.16-.2,2.31-.3,3.47-.11,1.15-.21,2.24-.3,3.27-.09,1.03-.17,1.97-.24,2.84s-.1,1.58-.1,2.16c0,1.72,.33,2.98,.98,3.78,.65,.8,1.52,1.2,2.61,1.2,1.23,0,2.49-.66,3.78-1.99,1.29-1.33,2.52-3.26,3.69-5.81,1.17-2.55,2.17-5.41,3-8.59,.83-3.18,1.35-6.61,1.59-10.29l4.61-.56,.35,.02c-.13,1.38-.25,2.84-.36,4.38-.11,1.54-.21,3.09-.29,4.63-.09,1.54-.15,3.05-.2,4.53-.04,1.48-.06,2.84-.06,4.08,0,2.36,.14,4.29,.41,5.79,.28,1.5,.63,2.68,1.06,3.54,.44,.86,.93,1.46,1.49,1.78,.56,.33,1.12,.49,1.68,.49,.33,0,.66-.04,.99-.13,.33-.09,.63-.19,.92-.31s.55-.26,.79-.4c.24-.14,.45-.27,.62-.39l.72,1c-.42,.43-.9,.84-1.43,1.23s-1.1,.72-1.69,1c-.59,.28-1.22,.5-1.87,.66-.65,.16-1.31,.24-1.98,.24-.84,0-1.66-.17-2.44-.5-.79-.33-1.49-.89-2.1-1.67s-1.1-1.83-1.47-3.13-.55-2.93-.55-4.87c0-.62,.01-1.25,.04-1.89,.03-.64,.07-1.31,.13-2.02,.06-.71,.13-1.47,.23-2.29,.09-.82,.21-1.72,.34-2.71l-.24-.04c-.99,3.64-2.05,6.69-3.21,9.15-1.15,2.46-2.33,4.45-3.54,5.95-1.21,1.51-2.42,2.58-3.64,3.23-1.22,.64-2.38,.97-3.48,.97-.83,0-1.62-.14-2.38-.42-.76-.28-1.44-.75-2.03-1.39s-1.07-1.5-1.42-2.55c-.36-1.06-.53-2.36-.53-3.91,0-1.01,.06-2.19,.17-3.53,.12-1.34,.24-2.77,.38-4.28,.14-1.51,.26-3.08,.38-4.69,.12-1.61,.17-3.21,.17-4.79,0-.64-.02-1.19-.07-1.65-.04-.46-.14-.85-.28-1.15-.15-.3-.36-.53-.64-.67-.28-.14-.67-.22-1.16-.22s-1.13,.07-1.92,.22c-.79,.15-1.62,.34-2.49,.59l-.33-1.56c1.19-.42,2.29-.79,3.31-1.1,1.02-.31,1.93-.57,2.74-.77,.8-.2,1.48-.35,2.04-.46,.56-.1,.97-.15,1.23-.15,.52,0,.95,.09,1.28,.28,.33,.19,.6,.46,.8,.83,.2,.36,.34,.8,.42,1.3,.08,.51,.12,1.09,.12,1.74Z" fill="#1d1d1b"></path><path d="M117.71,37.2c-.25,1.65-.46,3.31-.63,4.97s-.32,3.26-.42,4.81c-.11,1.55-.19,3.02-.24,4.4s-.08,2.63-.08,3.75c0,1.51,.02,2.8,.06,3.88,.04,1.08,.12,1.99,.22,2.73,.1,.74,.23,1.33,.38,1.77s.34,.78,.57,1.02c.22,.24,.48,.4,.78,.47,.3,.07,.63,.11,1.01,.11,.7,0,1.45-.1,2.25-.31,.8-.21,1.62-.5,2.44-.88l.41,1.13c-.52,.42-1.18,.85-1.97,1.28-.79,.43-1.62,.83-2.49,1.2s-1.72,.66-2.55,.88-1.55,.34-2.16,.34c-.41,0-.78-.03-1.11-.1-.33-.07-.63-.23-.9-.49-.27-.26-.51-.64-.72-1.15-.21-.51-.38-1.2-.52-2.06s-.24-1.96-.32-3.26c-.07-1.3-.11-2.88-.11-4.74,0-1.09,.01-2.31,.03-3.68,.02-1.37,.05-2.84,.1-4.41,.04-1.57,.1-3.23,.17-4.98,.07-1.75,.17-3.55,.28-5.4,.03-.41,.14-.74,.33-.99,.19-.25,.42-.45,.7-.59,.27-.14,.57-.23,.88-.28s.6-.08,.86-.08c.97,0,1.88,.22,2.74,.67Zm-1.89-9.82c-.51,0-.96-.1-1.35-.31-.39-.21-.72-.48-1-.83-.27-.34-.49-.73-.63-1.17-.14-.44-.22-.89-.22-1.36,0-.65,.11-1.23,.33-1.73,.22-.5,.5-.92,.85-1.26,.35-.34,.73-.59,1.15-.76,.42-.17,.83-.25,1.24-.25,.49,0,.93,.09,1.33,.27,.39,.18,.73,.43,1.01,.75,.28,.32,.5,.68,.65,1.1,.15,.41,.23,.86,.23,1.34,0,.51-.09,1.01-.26,1.51-.17,.5-.42,.95-.73,1.36-.31,.41-.69,.73-1.13,.98-.44,.25-.93,.37-1.47,.37Z" fill="#1d1d1b"></path><path d="M125.61,67.49c.33-.58,.84-1.33,1.51-2.25,.67-.92,1.46-1.95,2.36-3.1,.9-1.14,1.88-2.36,2.94-3.66,1.06-1.3,2.15-2.6,3.27-3.92,1.12-1.32,2.23-2.62,3.35-3.9,1.12-1.28,2.17-2.48,3.15-3.58,.99-1.11,1.88-2.1,2.69-2.98,.81-.88,1.47-1.57,1.98-2.07l-.13-.15c-.61,.13-1.27,.23-1.99,.29-.72,.06-1.4,.1-2.05,.1-.99,0-1.93-.04-2.83-.11-.9-.07-1.72-.15-2.47-.24s-1.4-.17-1.97-.24c-.56-.07-1-.11-1.3-.11-.62,0-1.19,.09-1.69,.26-.51,.17-.95,.47-1.33,.88-.38,.41-.68,.97-.92,1.66s-.4,1.56-.49,2.61l-1.65-.04c.01-.78,.03-1.58,.05-2.38,.02-.8,.09-1.58,.2-2.33,.11-.75,.27-1.45,.49-2.11,.22-.66,.53-1.23,.95-1.72,.41-.48,.94-.87,1.58-1.15,.64-.28,1.42-.42,2.35-.42,.75,0,1.6,.05,2.55,.15,.95,.1,1.95,.21,3,.33,1.05,.12,2.12,.22,3.23,.33,1.1,.1,2.17,.15,3.22,.15,1.13,0,2.21-.09,3.23-.26s1.88-.47,2.57-.89l1.22,1c-.29,.64-.73,1.41-1.33,2.31s-1.29,1.9-2.1,3-1.69,2.26-2.67,3.49c-.98,1.23-1.99,2.48-3.04,3.74-1.05,1.26-2.12,2.52-3.19,3.78-1.08,1.26-2.13,2.46-3.15,3.61-1.02,1.14-1.99,2.22-2.9,3.22s-1.72,1.87-2.43,2.61l.17,.15c.28-.12,.59-.22,.95-.33,.35-.1,.72-.19,1.1-.26,.38-.07,.75-.13,1.12-.16,.37-.04,.71-.05,1.01-.05,.91,0,1.82,.07,2.73,.21s1.78,.29,2.63,.45c.85,.16,1.66,.31,2.44,.45,.78,.14,1.52,.21,2.22,.21,.65,0,1.26-.09,1.81-.26s1.05-.48,1.49-.92,.8-1.04,1.09-1.79c.29-.75,.49-1.72,.61-2.89l1.61,.13c-.03,2.09-.2,3.81-.52,5.17-.32,1.36-.76,2.44-1.33,3.23-.57,.79-1.23,1.34-2,1.65s-1.61,.47-2.52,.47-1.97-.12-3.05-.36c-1.08-.24-2.19-.5-3.35-.79-1.15-.29-2.32-.55-3.51-.79-1.19-.24-2.36-.36-3.52-.36-1.09,0-2.13,.15-3.14,.43-1.01,.29-1.97,.8-2.9,1.54l-1.37-1Z" fill="#1d1d1b"></path></g><path d="M1.31,124.68c28.75-4.49,57.97-5.23,87.02-5.46,30.09-.24,60.21-.36,90.29,.46,16.84,.46,33.68,1.29,50.47,2.76,.64,.06,1.61-.21,1.9-.86s-.25-1.05-.85-1.1c-30.2-2.65-60.54-3.21-90.84-3.31s-59.81-.35-89.66,1.03c-16.07,.74-32.13,2.04-48.03,4.52-.58,.09-1.54,.39-1.61,1.11-.06,.68,.77,.93,1.31,.84h0Z" fill="#d1aad1"></path></g></g></svg>