<svg version="1.1" id="Layer_1" xmlns="http://www.w3.org/2000/svg" xmlns:xlink="http://www.w3.org/1999/xlink" x="0px" y="0px"
	 width="100%" viewBox="0 0 1024 1024" enable-background="new 0 0 1024 1024" xml:space="preserve">
<path fill="#000000" opacity="1.000000" stroke="none" 
	d="
M168.012360,497.793091 
	C187.796814,505.850861 203.057587,519.426392 217.488586,534.119507 
	C219.690125,536.361023 222.140640,538.194031 226.135757,540.133423 
	C219.844086,530.137390 214.225479,521.140808 208.535309,512.189758 
	C202.727081,503.053070 196.630936,494.091644 191.063965,484.811707 
	C185.819611,476.069489 178.582520,470.669739 168.396759,469.547211 
	C144.100403,466.869751 127.124092,452.445404 112.215515,434.676880 
	C110.503502,432.636414 108.883858,430.518127 107.232941,428.426819 
	C106.047737,426.925415 105.211311,425.255219 105.998047,423.350189 
	C106.902794,421.159424 108.983566,421.581543 110.763916,421.592255 
	C122.278244,421.661560 132.501190,426.145203 142.436737,431.269287 
	C152.274887,436.343079 161.067398,442.908936 168.466431,451.235962 
	C169.437057,452.328278 170.376205,453.569366 172.108734,453.752197 
	C173.547684,452.025177 172.064407,450.589386 171.480072,449.259338 
	C165.850967,436.446411 160.900894,423.377106 156.704224,410.033600 
	C155.666611,406.734406 154.095932,405.236053 150.435379,405.072296 
	C125.183739,403.942871 112.031975,383.980133 110.424232,365.900543 
	C109.459618,355.053131 108.771973,343.999146 104.812416,333.592529 
	C104.480873,332.721130 104.667419,331.652618 104.588272,330.224762 
	C110.820328,328.827362 115.476593,332.149139 120.284370,335.242371 
	C122.111450,332.270569 122.059647,329.199738 122.919289,326.411560 
	C123.853233,323.382355 125.056122,320.477020 126.697998,317.738159 
	C128.401443,314.896545 130.312866,314.418976 133.289230,316.102417 
	C137.407471,318.431702 140.580948,321.814972 144.197739,325.223145 
	C146.830429,322.678284 148.104584,319.229462 150.943314,317.161987 
	C153.943054,314.977264 156.719009,314.962341 158.300995,318.600189 
	C162.181534,327.523804 168.390854,335.057312 172.868164,343.619751 
	C179.838486,356.949860 181.639908,370.648010 176.489136,385.033508 
	C174.767929,389.840637 172.407471,394.287659 168.460129,397.470520 
	C164.460983,400.695221 164.077637,404.157104 165.347809,408.884277 
	C172.737717,436.387634 185.544479,461.292542 201.170197,484.888702 
	C201.720642,485.719940 202.362411,486.494110 203.003494,487.259796 
	C203.189804,487.482300 203.521805,487.582855 204.089600,487.917755 
	C204.377335,484.716888 203.182449,482.005798 202.286133,479.279419 
	C198.387817,467.421753 194.670883,455.510620 194.063858,442.933044 
	C193.343491,428.007111 195.199005,413.413025 200.459122,399.352509 
	C201.264786,397.198914 202.059357,394.749878 205.063354,394.818909 
	C208.189026,394.890717 208.592438,397.625244 209.222122,399.724426 
	C214.576691,417.574951 216.950012,435.711823 214.528381,454.354553 
	C212.967926,466.367828 211.648743,478.416138 210.456436,490.471985 
	C209.881332,496.287140 211.812485,501.658569 214.667130,506.659546 
	C223.515030,522.159973 233.939194,536.621460 244.147415,551.224365 
	C245.808075,553.599915 247.443680,555.993103 249.282532,558.271912 
	C244.571030,546.006104 240.041138,533.716919 238.160950,520.681213 
	C236.864868,511.695251 237.408966,502.763733 240.276917,494.074615 
	C240.903519,492.176208 241.640793,490.067719 244.064972,489.958435 
	C246.483002,489.849457 247.415207,491.854004 248.216507,493.704559 
	C256.912170,513.786316 264.961700,534.044312 263.309509,556.589966 
	C262.873016,562.545898 261.949554,568.464600 261.367798,574.411926 
	C260.260895,585.728699 265.819000,595.754822 267.725098,606.494568 
	C268.353760,610.036804 269.495850,613.487854 270.687805,618.076355 
	C274.546783,601.123413 276.863129,585.044678 279.663452,569.056396 
	C282.474426,553.007141 284.370148,536.840942 285.258545,520.584900 
	C285.873413,509.334747 282.597717,498.923401 273.050262,492.519562 
	C255.343811,480.643188 248.540298,463.006683 244.672256,443.415192 
	C244.059967,440.313995 243.525177,437.222015 243.553406,434.029816 
	C243.573288,431.783051 243.548096,429.633820 245.791901,428.351318 
	C248.228317,426.958679 249.985855,428.646484 251.604416,429.953217 
	C266.118988,441.671448 276.729706,456.018372 281.251770,474.417023 
	C282.041290,477.629272 282.918182,480.820068 283.881775,484.506866 
	C285.018921,483.065796 284.658295,481.779816 284.607697,480.643646 
	C283.660583,459.375610 282.279999,438.117157 281.851929,416.839386 
	C281.598480,404.242889 282.940399,391.626007 285.667999,379.242493 
	C286.200439,376.825195 286.714264,374.362762 289.351044,372.528137 
	C292.210144,376.034119 292.219543,380.191162 292.023712,384.130249 
	C290.940735,405.911804 289.501373,427.693359 290.582550,449.505157 
	C291.579498,469.617279 292.969482,489.708282 293.200684,509.854614 
	C293.253296,514.439331 291.329681,518.987610 293.406647,523.747986 
	C298.548920,506.753082 309.345337,492.017670 310.006317,473.085236 
	C310.713501,452.828278 318.715729,434.591858 332.617035,419.414185 
	C337.564758,414.012146 342.737549,408.774445 349.063507,404.905609 
	C355.696808,400.848877 358.955688,402.580566 359.324921,410.370209 
	C360.340363,431.795074 353.240112,450.558655 340.489258,467.441864 
	C334.919525,474.816711 327.949493,480.784851 320.857269,486.593597 
	C318.613708,488.431183 316.747528,490.454987 315.396240,492.991486 
	C303.746155,514.859985 295.500366,537.995300 289.699371,562.040161 
	C289.387787,563.331482 289.042419,564.636230 289.829926,565.987732 
	C292.228088,566.453003 292.844910,564.321228 293.858887,563.004883 
	C301.683136,552.846863 309.376160,542.587646 317.229004,532.452026 
	C320.950989,527.648132 323.253937,522.159912 325.763855,516.708435 
	C338.794800,488.405884 359.646912,469.352539 390.614899,462.420441 
	C393.691010,461.731873 397.534790,460.198547 399.591400,462.550446 
	C401.785309,465.059387 400.164520,468.933777 399.062744,472.091064 
	C387.937317,503.971954 365.124603,522.532654 332.749756,530.128174 
	C330.949982,530.550354 329.125519,530.747192 327.775848,532.170837 
	C319.528809,540.869690 312.131866,550.226501 305.273071,560.683960 
	C308.207581,561.279785 309.856506,559.744080 311.613129,558.760986 
	C320.446564,553.817444 328.486176,547.459534 338.489716,544.630615 
	C351.964722,540.819946 365.692047,540.281067 379.537567,540.710632 
	C381.400635,540.768433 383.467834,541.033813 383.981842,543.147583 
	C384.517609,545.351013 382.864349,546.878418 381.338501,548.174927 
	C371.063232,556.906128 359.192383,562.118347 345.912018,564.317871 
	C337.467010,565.716492 328.979279,565.084656 320.503113,565.288147 
	C308.277954,565.581787 298.293732,570.318115 291.785736,581.083008 
	C282.873535,595.824585 279.524200,612.076355 278.195404,629.063904 
	C277.192230,641.888367 277.118164,654.693359 277.427124,667.495483 
	C277.993378,690.960327 280.625244,714.198914 286.669983,736.960205 
	C287.223297,739.043945 287.696045,741.153198 288.100403,743.270874 
	C288.387970,744.776794 288.479431,746.363770 286.732971,747.132507 
	C285.027802,747.883057 283.447845,747.550354 282.213318,746.112488 
	C280.187958,743.753479 279.416687,740.828003 278.781403,737.901855 
	C276.705078,728.337646 274.856171,718.722107 272.652893,709.187988 
	C270.659943,700.564148 264.996887,695.328674 256.456787,693.387573 
	C249.661545,691.843079 242.763657,690.755310 235.949936,689.285889 
	C216.174911,685.021301 202.020782,672.280762 189.172516,657.765320 
	C186.101501,654.295837 187.781738,650.839478 192.673218,650.850586 
	C216.078659,650.903564 238.106735,655.135803 255.232437,673.029907 
	C259.824127,677.827576 264.604004,682.472107 267.889282,688.407288 
	C266.478058,682.338867 264.081573,676.640930 261.196747,671.177734 
	C258.321381,665.732422 255.095367,660.472839 252.049988,655.116516 
	C248.093735,648.158020 242.969772,643.037415 235.141754,639.830627 
	C203.018585,626.671448 182.864029,601.831970 169.631073,570.615601 
	C168.402939,567.718384 166.945892,564.827393 168.041351,561.385254 
	C169.819519,560.107056 171.749649,560.646973 173.661240,561.180054 
	C211.708893,571.791382 238.239487,594.517456 249.515381,633.294128 
	C252.828888,644.689026 260.773468,653.617859 265.937012,664.029541 
	C266.675537,665.518799 267.580444,666.925476 268.377899,668.317261 
	C269.449890,650.668762 267.342957,635.127197 260.049805,607.403687 
	C256.834351,595.180847 253.857498,582.867981 247.174500,571.896606 
	C240.879822,561.562744 232.155716,553.722961 222.008560,547.351196 
	C214.346130,542.539734 205.459625,542.297180 196.961868,541.541443 
	C166.487274,538.831177 140.303421,526.597229 117.153709,507.118378 
	C113.719719,504.228943 109.997063,501.642303 107.663719,497.640289 
	C105.132217,493.298462 106.100975,490.942261 111.044785,489.711487 
	C116.781883,488.283264 122.656807,488.332062 128.447998,488.810272 
	C141.906158,489.921539 155.146820,492.220581 168.012360,497.793091 
z"/>
<path fill="#000000" opacity="1.000000" stroke="none" 
	d="
M233.133789,289.036255 
	C219.290710,285.691833 206.202179,281.405212 193.676941,275.477570 
	C190.477554,273.963440 187.616501,271.994415 185.264999,269.326324 
	C180.838852,264.304260 182.186249,259.259308 188.575150,256.926056 
	C194.516037,254.756409 200.385361,255.894394 206.251862,257.302094 
	C220.718597,260.773499 234.239075,266.852539 249.364227,272.870300 
	C240.219711,265.870880 232.456284,259.366394 224.966446,252.542984 
	C219.652985,247.702332 214.591202,242.643311 210.904083,236.409027 
	C209.809555,234.558365 208.840546,232.574341 208.188354,230.531906 
	C205.955185,223.538147 209.840195,219.348206 216.964554,221.050934 
	C225.425705,223.073135 232.522079,227.675674 239.165573,233.088989 
	C247.450439,239.839737 254.822845,247.502136 262.516144,256.753937 
	C258.387909,247.436493 254.727646,239.380905 251.244232,231.249573 
	C248.358444,224.513245 246.116180,217.576126 245.189438,210.245758 
	C244.871048,207.727325 244.828522,205.325653 245.393417,202.832077 
	C247.165024,195.011932 252.099854,193.206360 258.334778,198.434921 
	C267.255676,205.915939 271.104218,216.544891 275.302612,226.871094 
	C277.804169,233.023773 279.872833,239.352478 282.654266,247.032822 
	C282.654266,239.190277 282.525208,232.757721 282.687012,226.332504 
	C282.888153,218.345535 283.846558,210.430420 286.020416,202.717728 
	C286.602753,200.651642 287.383789,198.581848 288.436340,196.718658 
	C292.319061,189.845703 297.720062,189.829544 301.569397,196.797623 
	C305.106873,203.201141 305.970093,210.347885 306.300110,217.519073 
	C306.821808,228.854477 305.767670,240.102478 304.145874,251.368256 
	C307.415009,241.291504 312.031494,231.844315 317.008606,222.561737 
	C320.103271,216.790024 323.956879,211.593216 328.815125,207.170395 
	C329.307953,206.721771 329.746490,206.199158 330.286316,205.818939 
	C333.830353,203.322784 337.673279,200.041000 342.011566,202.612778 
	C346.301086,205.155685 345.766724,210.121033 345.015320,214.437164 
	C343.778442,221.541779 341.107208,228.193405 337.623932,234.480652 
	C333.518311,241.891235 329.231781,249.201584 325.413788,256.977600 
	C332.955841,250.631912 340.431702,244.205185 348.062653,237.968292 
	C353.377258,233.624588 359.150574,229.983322 365.915436,228.256775 
	C369.551727,227.328720 373.435669,226.658463 376.143829,229.874603 
	C378.824310,233.057877 376.983917,236.540527 375.433105,239.683670 
	C371.553192,247.547562 364.775482,252.812729 358.259155,258.223328 
	C351.599762,263.752716 344.494568,268.703339 337.051605,273.304871 
	C346.007904,270.423981 354.960999,267.532990 363.921539,264.665314 
	C371.276428,262.311462 378.796997,261.165131 386.533081,261.655670 
	C387.529541,261.718842 388.577698,261.598633 389.513763,261.868805 
	C392.842651,262.829559 396.796936,263.338593 397.676910,267.446320 
	C398.457733,271.091034 395.443176,273.058502 393.004425,275.044312 
	C388.000153,279.119171 382.032654,281.257019 376.030060,283.271820 
	C365.322815,286.865753 354.399231,289.585663 343.131439,291.127869 
	C353.501587,293.040924 364.045685,293.323792 374.259064,295.723480 
	C380.235718,297.127716 386.274750,298.464325 391.715790,301.528076 
	C394.719421,303.219360 397.518433,305.240204 397.209900,309.134216 
	C396.905182,312.979706 393.528259,314.137329 390.589111,315.086365 
	C378.698761,318.925446 366.634064,317.937042 354.591736,315.857239 
	C348.074585,314.731659 341.562042,313.542114 335.295471,311.179871 
	C347.168732,316.975037 358.773102,323.078644 369.076477,331.348419 
	C373.375122,334.798615 377.447205,338.534302 380.044067,343.519104 
	C383.543793,350.236969 381.155457,354.263672 373.691956,354.333740 
	C365.916870,354.406769 359.120117,351.250549 352.530792,347.638489 
	C343.097443,342.467316 334.452515,336.053375 324.423950,329.100281 
	C332.714111,338.599121 339.959045,347.045502 345.748962,356.610901 
	C348.617615,361.350098 350.754028,366.393463 351.985260,371.779510 
	C352.808716,375.382050 352.406372,378.997131 349.264313,381.308563 
	C346.202301,383.561157 342.826660,382.439117 339.884369,380.652130 
	C331.346985,375.466919 326.034668,367.290253 320.736084,359.225372 
	C315.909943,351.879608 311.543243,344.231964 306.369019,335.722351 
	C310.281555,347.874481 314.354767,358.849854 316.840912,370.279572 
	C318.404236,377.466919 319.444794,384.734924 317.385162,391.977722 
	C315.142029,399.865814 310.009613,401.116699 304.233185,395.183075 
	C299.214417,390.027710 296.747650,383.419647 294.740082,376.700653 
	C291.002899,364.192932 289.809906,351.313232 289.432068,338.285553 
	C287.998444,348.605499 286.902313,358.992157 284.245636,369.095459 
	C282.165985,377.004333 279.676636,384.816132 274.833954,391.519592 
	C272.178864,395.194885 269.312561,400.336456 263.994507,398.636627 
	C258.830688,396.986084 258.936951,391.169891 258.806061,386.606873 
	C258.500763,375.967773 261.946045,365.974701 264.971436,355.959045 
	C266.628906,350.471985 268.614380,345.084015 270.129333,339.509186 
	C263.087463,350.437225 256.924866,361.893341 247.901657,371.363800 
	C243.985092,375.474518 239.972717,379.474640 234.735382,381.925751 
	C231.968628,383.220673 228.857727,384.490387 226.239670,382.373993 
	C223.595001,380.236053 223.436920,376.803101 223.960892,373.583344 
	C224.800873,368.421753 226.957748,363.730286 229.626923,359.284668 
	C236.603607,347.664734 244.802597,336.990417 254.516464,327.513428 
	C255.581070,326.474762 256.812195,325.606781 257.693359,324.349457 
	C246.187103,331.922241 235.141571,340.123047 222.450485,345.599365 
	C216.153549,348.316528 209.637268,350.522797 202.695084,350.195984 
	C194.792099,349.823944 192.752457,345.533905 197.098755,338.923706 
	C201.755859,331.840851 208.797775,327.600861 216.076263,323.880554 
	C225.232346,319.200531 234.614105,314.962067 244.307220,310.338074 
	C228.325607,312.984436 212.827713,316.069641 196.915527,315.383636 
	C192.164276,315.178802 187.604385,314.290649 183.462158,312.121307 
	C177.626205,309.064941 177.458069,304.212494 182.961365,300.535919 
	C189.031174,296.480927 195.961945,294.776245 203.082764,293.646484 
	C215.416321,291.689697 227.844742,291.357025 240.435715,290.847931 
	C238.130798,290.285675 235.825867,289.723419 233.133789,289.036255 
M269.953827,286.603851 
	C265.787903,296.361877 268.841156,307.453094 277.257294,313.134552 
	C285.593658,318.762177 298.502991,317.622101 305.345581,310.653900 
	C312.808380,303.054108 314.096619,291.077545 308.347137,282.749817 
	C299.352478,269.721771 279.095795,271.411713 269.953827,286.603851 
z"/>
<path fill="#000000" opacity="1.000000" stroke="none" 
	d="
M392.649719,361.076721 
	C393.012543,345.928894 399.190460,333.269958 406.389557,320.987640 
	C407.714844,318.726562 409.758789,316.963989 412.591339,317.935516 
	C415.273071,318.855286 415.214935,321.517487 415.313538,323.831512 
	C416.103485,342.373260 414.905762,360.691925 409.121002,378.641876 
	C430.297852,351.062347 455.871582,326.773224 469.770874,293.873657 
	C464.116028,295.978973 458.502716,298.478180 452.208557,298.370361 
	C442.725830,298.207947 436.991821,292.656616 436.626221,283.276825 
	C436.517029,280.475525 435.912262,277.692535 435.517029,274.903595 
	C434.090332,264.836182 440.308746,257.406311 450.511993,256.633362 
	C456.763000,256.159821 462.607239,258.014374 469.769897,259.728088 
	C467.607819,256.694214 466.061157,254.627518 464.624481,252.487000 
	C461.343933,247.599182 458.608704,242.501526 458.658936,236.365555 
	C458.715454,229.466446 461.700256,225.004089 468.167297,222.698532 
	C472.231537,221.249573 476.373840,220.099365 480.333954,218.276993 
	C487.328583,215.058228 492.881653,216.962097 496.950226,223.529770 
	C498.996826,226.833466 499.759949,230.542969 500.659180,234.290482 
	C501.534851,237.939621 500.905762,241.601105 501.709564,245.758041 
	C505.050415,242.835190 506.632416,238.994766 509.209991,235.970871 
	C514.158325,230.165649 519.611206,225.474213 528.050964,227.717148 
	C532.111084,228.796158 534.870056,231.334717 535.278198,235.643341 
	C535.652222,239.592056 537.770020,241.823685 541.117371,243.639954 
	C548.719177,247.764587 549.687866,254.334900 544.026062,260.952393 
	C538.498901,267.412537 531.419983,271.157715 521.988342,273.206146 
	C529.484192,275.365631 535.819641,277.138977 541.346497,281.128357 
	C550.989807,288.089020 550.279663,298.528290 541.990540,303.252350 
	C539.389648,304.734619 538.484802,307.573395 537.233276,310.117523 
	C532.974854,318.773895 525.535767,320.838379 517.437195,315.563507 
	C511.211304,311.508453 506.703796,305.837128 502.528656,298.283722 
	C503.684113,306.259552 504.691742,312.903900 503.351746,319.721588 
	C501.335266,329.980927 495.181458,334.159302 484.996490,331.777588 
	C483.401001,331.404449 481.556061,330.901886 480.096954,331.346619 
	C473.385529,333.392181 467.608063,332.444824 462.866119,325.978180 
	C449.147247,343.000946 434.988037,358.775391 422.452545,375.966187 
	C433.427124,368.459839 444.998077,362.554565 458.222351,360.234436 
	C462.562958,359.472870 466.862976,359.538940 471.152435,359.793976 
	C475.760742,360.068054 476.909210,362.560547 474.378754,366.537231 
	C465.707092,380.165222 453.070282,387.164581 437.098145,388.301025 
	C433.781403,388.537018 430.400696,388.653107 427.107513,388.293335 
	C417.960907,387.294067 411.595673,391.629303 405.997040,398.235931 
	C396.929626,408.935852 388.906281,420.371582 381.241425,432.082916 
	C379.964447,434.034088 378.700165,435.994171 377.389954,437.922882 
	C376.148590,439.750153 374.757965,441.835632 372.222015,440.349213 
	C369.909241,438.993591 370.372742,436.543030 371.219849,434.520142 
	C374.075989,427.699524 378.717407,421.958618 382.801331,415.883240 
	C383.079437,415.469574 383.416199,415.095734 383.716370,414.696411 
	C397.563904,396.275146 397.573303,396.273224 393.101318,373.521423 
	C392.320587,369.549438 392.817749,365.546051 392.649719,361.076721 
M485.357574,272.896423 
	C484.802429,277.779694 487.061859,280.984406 491.602020,282.283234 
	C495.488281,283.394928 498.837494,281.958893 501.117859,278.613953 
	C504.082336,274.265564 502.597565,268.856171 497.902008,266.335266 
	C492.985626,263.695801 488.153503,265.939972 485.357574,272.896423 
z"/>
<path fill="#000000" opacity="1.000000" stroke="none" 
	d="
M689.355225,466.187439 
	C689.524414,467.509064 689.039490,468.579590 690.163940,469.602295 
	C695.778198,463.134003 702.061646,457.742401 710.966797,456.274200 
	C729.277344,453.255249 745.917969,460.257111 747.492249,483.476593 
	C748.598633,499.793701 747.661377,516.092346 748.206787,532.392944 
	C748.380554,537.589478 750.174072,541.077698 755.276489,542.420166 
	C758.103943,543.164124 759.749207,544.583252 759.199524,547.696899 
	C758.661499,550.744385 756.209473,550.360840 754.099121,550.366760 
	C741.943054,550.400818 729.786621,550.348816 717.630737,550.413086 
	C714.869080,550.427673 712.577881,549.967529 712.047607,546.796509 
	C711.507996,543.569580 713.989197,542.984375 716.238037,542.275391 
	C720.688660,540.872375 722.592407,537.568115 722.614868,533.189880 
	C722.694397,517.706421 722.844238,502.218872 722.572632,486.739746 
	C722.414307,477.720734 716.512817,472.475922 707.427307,472.372498 
	C697.899841,472.264038 689.592041,478.529419 689.421265,486.778931 
	C689.100769,502.257751 689.299622,517.747925 689.339844,533.233215 
	C689.349976,537.137695 691.362305,539.818665 694.928162,541.328552 
	C696.151550,541.846558 697.399902,542.321106 698.668152,542.714600 
	C701.104370,543.470642 701.411194,545.313171 701.259094,547.467468 
	C701.083984,549.947205 699.372498,550.347900 697.399109,550.349731 
	C683.261658,550.362549 669.124084,550.344238 654.986755,550.375793 
	C652.575806,550.381165 651.237427,549.236328 650.880920,546.937256 
	C650.491333,544.424927 652.057068,543.436584 654.153381,542.710754 
	C661.720642,540.090759 662.663269,538.929504 662.702393,530.886597 
	C662.778564,515.234253 662.727661,499.580841 662.640076,483.928345 
	C662.596130,476.073364 661.583801,474.774902 653.973206,472.280396 
	C652.003784,471.634918 650.800354,470.600250 650.736694,468.436768 
	C650.667664,466.093109 651.838501,464.312225 653.977661,464.013214 
	C664.415833,462.554138 674.318298,459.224915 684.260559,455.938019 
	C687.287598,454.937347 689.531982,455.979584 689.348755,459.808167 
	C689.253357,461.801514 689.345642,463.803894 689.355225,466.187439 
z"/>
<path fill="#000000" opacity="1.000000" stroke="none" 
	d="
M638.955688,620.656982 
	C641.779297,620.667969 644.111511,620.663940 646.443176,620.696167 
	C648.236938,620.721008 649.788513,621.196167 650.172119,623.246155 
	C650.476746,624.873657 649.822937,626.070740 648.499634,627.106873 
	C641.692688,632.436218 641.208618,633.283875 644.218506,641.172119 
	C648.770569,653.102478 653.761230,664.865479 658.678223,676.977234 
	C659.607117,676.359924 660.176575,676.197327 660.311523,675.860474 
	C665.011292,664.135559 670.460938,652.692688 673.998779,640.528442 
	C675.825256,634.248169 674.605408,631.290588 669.085693,628.154785 
	C667.010254,626.975647 666.201416,625.493713 666.620300,623.285034 
	C667.061462,620.958740 668.876343,620.674133 670.819336,620.674561 
	C678.815125,620.676392 686.810913,620.675415 694.806702,620.682251 
	C696.578857,620.683716 698.205078,621.089966 698.791016,623.002197 
	C699.383728,624.936707 698.219849,626.358948 696.734863,627.130066 
	C689.807434,630.727234 686.942993,637.408325 684.136047,643.943481 
	C675.994080,662.899048 668.125916,681.972229 660.150085,700.999207 
	C659.699585,702.073914 659.237244,703.143738 658.799011,704.223450 
	C657.508179,707.404297 656.102600,710.404602 651.885193,710.304626 
	C647.934326,710.210815 646.690125,707.371582 645.444641,704.337036 
	C640.201660,691.563354 634.899048,678.813965 629.596802,666.064636 
	C628.474548,663.366211 627.262329,660.705261 626.050232,657.932495 
	C623.965271,659.192566 623.630432,660.910828 623.015625,662.403564 
	C617.124329,676.706665 609.943359,690.459167 604.824036,705.093262 
	C603.757324,708.142761 601.737244,710.157227 598.253784,710.321716 
	C594.324951,710.507202 592.682861,707.891968 591.406677,704.844727 
	C583.887573,686.891785 576.383057,668.932617 568.886475,650.970154 
	C567.220703,646.978760 565.502075,643.004578 563.996155,638.952454 
	C562.181519,634.069275 559.359070,630.124390 554.526428,627.888428 
	C552.478394,626.940857 551.354370,625.574097 551.760620,623.197144 
	C552.249451,620.337341 554.484070,620.692322 556.421692,620.685913 
	C568.082275,620.647583 579.742981,620.650818 591.403687,620.672485 
	C593.386963,620.676147 595.586670,620.486450 596.179382,623.157104 
	C596.697693,625.492188 595.420654,626.984680 593.563354,628.041992 
	C589.347595,630.441589 588.708374,633.897461 590.073730,638.283630 
	C594.222229,651.610352 599.988159,664.262207 605.928040,678.560181 
	C611.125977,666.750427 616.975830,656.661133 619.788696,645.786255 
	C621.310120,639.903992 616.767639,633.088501 611.313782,628.681213 
	C609.321350,627.071106 606.901855,625.815308 607.941223,622.765930 
	C608.976013,619.730103 611.810364,620.730896 613.977478,620.703247 
	C622.138489,620.599365 630.301636,620.659119 638.955688,620.656982 
z"/>
<path fill="#000000" opacity="1.000000" stroke="none" 
	d="
M464.484802,543.059082 
	C476.132446,541.908081 477.651459,540.273499 477.653015,529.094666 
	C477.657593,496.437714 477.656616,463.780731 477.649750,431.123779 
	C477.648315,424.349426 477.632172,424.349457 471.127930,424.363586 
	C455.663910,424.397186 446.357971,431.553650 442.109924,446.564758 
	C441.712891,447.967712 440.975006,449.371796 440.061798,450.507080 
	C438.845520,452.019043 437.089966,452.717468 435.141479,451.965118 
	C433.381866,451.285828 432.571564,449.775452 432.736298,447.977844 
	C433.644470,438.067932 434.628326,428.164886 435.602112,418.261078 
	C435.901550,415.215729 437.964142,414.645203 440.575287,414.646973 
	C474.731781,414.670349 508.888275,414.678589 543.044678,414.635834 
	C545.946167,414.632202 547.993469,415.428040 548.238464,418.623535 
	C548.962097,428.062897 549.665527,437.504028 550.310547,446.949005 
	C550.461121,449.153717 550.407532,451.514404 547.604553,452.123291 
	C544.813232,452.729675 543.178894,450.967102 542.195679,448.702393 
	C540.344055,444.437714 538.833435,440.057831 536.242004,436.101288 
	C529.510986,425.824554 519.409241,423.936768 508.268921,424.449890 
	C505.085144,424.596527 505.323212,427.037292 505.319672,429.216583 
	C505.301849,440.213287 505.293427,451.210022 505.293610,462.206726 
	C505.294006,485.033234 505.281250,507.859802 505.317413,530.686279 
	C505.331055,539.290527 506.390503,540.510559 514.856079,542.370605 
	C516.471130,542.725403 518.096375,543.071411 519.669128,543.571594 
	C521.250427,544.074646 522.236633,545.231262 522.017212,546.951050 
	C521.788879,548.740051 520.846985,550.059692 518.863098,550.265015 
	C518.201416,550.333496 517.533020,550.366089 516.867737,550.366150 
	C499.892975,550.367981 482.918213,550.355652 465.943451,550.368713 
	C463.663605,550.370483 461.480957,550.238342 460.900543,547.455200 
	C460.370331,544.912842 461.994720,543.850159 464.484802,543.059082 
z"/>
<path fill="#000000" opacity="1.000000" stroke="none" 
	d="
M319.844421,645.000000 
	C319.796600,629.837280 319.831360,615.173706 319.668640,600.512268 
	C319.580383,592.560852 318.834137,591.705811 311.415161,589.093384 
	C309.484650,588.413513 308.092255,587.304443 308.318665,585.156006 
	C308.562653,582.840149 310.081818,581.678650 312.429169,581.674744 
	C318.427704,581.664673 324.426208,581.652771 330.424744,581.652344 
	C352.919708,581.650635 375.415314,581.743225 397.909119,581.580688 
	C402.568115,581.547058 404.401917,582.968628 404.467224,587.849731 
	C404.567078,595.308777 405.453430,602.758179 406.030609,610.209717 
	C406.224976,612.719116 406.809723,615.435852 403.479736,616.372559 
	C400.314972,617.262817 398.956726,615.060669 397.877838,612.671997 
	C397.056305,610.853027 396.383484,608.967346 395.580200,607.139526 
	C390.821777,596.312012 382.350555,591.328735 370.695374,591.358887 
	C364.363525,591.375244 358.029968,591.446777 351.700378,591.326416 
	C348.461670,591.264893 347.293854,592.624084 347.316010,595.809265 
	C347.409912,609.305542 347.420166,622.803406 347.305603,636.299377 
	C347.278290,639.516418 348.379578,640.892700 351.656708,640.689209 
	C354.478394,640.513916 357.332336,640.483826 360.150269,640.688904 
	C370.386932,641.433655 377.700378,637.796326 380.707092,627.403809 
	C381.354523,625.166077 382.939697,624.008972 385.209167,624.387939 
	C387.566498,624.781677 388.331665,626.588745 388.329163,628.829041 
	C388.316803,639.826416 388.322327,650.823853 388.322479,661.821228 
	C388.322510,663.752686 388.060913,665.578125 385.795044,666.119629 
	C383.447662,666.680603 381.962006,665.320435 380.916077,663.498535 
	C379.842163,661.627869 379.201294,659.481689 377.981628,657.726685 
	C374.728088,653.045288 370.007812,650.730408 364.408173,650.439514 
	C360.087402,650.215088 355.745941,650.394897 351.413666,650.384583 
	C349.196198,650.379333 347.337921,650.855286 347.395264,653.611755 
	C347.661713,666.418152 346.698853,679.235107 347.944214,692.038696 
	C348.475403,697.499756 351.482910,700.036377 356.579163,700.590942 
	C359.354248,700.892944 361.524628,701.623962 361.246002,705.044373 
	C360.975098,708.369812 358.561523,708.340942 356.143890,708.340576 
	C341.813782,708.338623 327.483673,708.340332 313.153564,708.345093 
	C310.541870,708.345947 307.990692,708.296326 307.757751,704.731384 
	C307.543152,701.446777 309.894867,701.137451 312.270233,700.623718 
	C317.598938,699.471375 319.541870,696.983887 319.620422,690.486389 
	C319.801727,675.492188 319.782593,660.495605 319.844421,645.000000 
z"/>
<path fill="#000000" opacity="1.000000" stroke="none" 
	d="
M910.504822,545.536499 
	C903.456360,551.733032 895.638733,553.332642 887.004761,551.176025 
	C881.321228,549.756409 877.935364,545.870972 876.290039,540.408936 
	C874.141846,540.323364 873.285034,541.978943 872.032410,542.943115 
	C860.833130,551.563110 848.186829,554.186951 834.862244,550.078979 
	C819.149475,545.234680 814.509399,525.308533 825.681458,513.112244 
	C832.169617,506.029175 840.413330,501.763367 849.333801,498.745300 
	C856.731873,496.242310 864.217224,493.977875 871.733276,491.853119 
	C874.698792,491.014740 875.647156,489.401337 875.682312,486.472839 
	C875.837708,473.519989 869.617737,466.019745 858.842712,466.404358 
	C851.977417,466.649414 848.574341,469.600830 847.324097,476.419342 
	C846.774597,479.416412 845.836121,482.222809 843.557373,484.397247 
	C839.271606,488.486908 832.463379,489.370819 828.439697,486.365082 
	C824.013306,483.058533 822.961914,476.650787 825.851929,471.040375 
	C827.851379,467.158752 831.114807,464.531372 834.794250,462.571991 
	C849.607605,454.683502 865.266357,453.285675 881.191650,458.096039 
	C892.861816,461.621155 899.217957,471.274078 899.318604,484.032745 
	C899.431519,498.359802 899.351135,512.688416 899.345642,527.016357 
	C899.344727,529.350647 899.436279,531.633423 900.186462,533.910339 
	C901.316895,537.341431 903.338501,538.364502 906.678833,536.973877 
	C909.235352,535.909607 911.951233,532.909546 914.389404,536.973145 
	C916.543518,540.563477 913.207031,542.323669 911.471924,544.569702 
	C911.270020,544.831116 911.003357,545.042542 910.504822,545.536499 
M860.837158,504.353394 
	C855.528748,506.596985 850.857666,509.662140 847.759583,514.687134 
	C842.344727,523.469788 846.406433,535.762146 855.286499,537.535522 
	C863.329773,539.141907 872.754028,533.790161 874.757080,525.669678 
	C876.825195,517.285645 875.459351,508.688965 875.461975,499.850647 
	C870.084961,500.528992 865.855835,502.443787 860.837158,504.353394 
z"/>
<path fill="#000000" opacity="1.000000" stroke="none" 
	d="
M565.124695,550.309509 
	C547.692078,545.529297 545.926208,522.112732 557.472290,511.387299 
	C564.726135,504.649048 573.476074,500.698273 582.744934,497.729706 
	C588.286621,495.954895 593.807190,494.006866 599.474731,492.763763 
	C604.631470,491.632751 606.076477,488.843109 605.699951,483.906433 
	C605.001160,474.744110 601.723999,469.411713 594.803833,467.199829 
	C586.226196,464.458160 580.153076,467.760223 577.985046,476.365845 
	C576.661316,481.620178 574.399841,485.846832 568.568604,487.525970 
	C564.398987,488.726715 560.969055,488.157135 558.060608,485.131653 
	C554.959473,481.905792 553.837402,478.140320 555.383179,473.670410 
	C557.522034,467.485535 562.350708,463.859924 567.774780,461.272064 
	C581.169495,454.881409 595.292236,453.612396 609.567017,457.581451 
	C622.426514,461.156982 629.191772,470.841370 629.318359,484.876373 
	C629.443054,498.703308 629.337036,512.532227 629.365540,526.360229 
	C629.369324,528.182922 629.344971,530.053040 629.720032,531.819092 
	C630.974304,537.723999 632.881836,538.634827 638.430725,536.066162 
	C640.469421,535.122437 642.379211,534.049133 644.195801,536.390198 
	C645.836426,538.504333 645.109741,540.336670 643.772522,542.295349 
	C637.649048,551.264526 624.134216,554.792908 614.323792,550.123535 
	C610.035339,548.082336 607.949951,544.481995 606.169250,539.584534 
	C594.342163,550.493713 580.807861,554.037842 565.124695,550.309509 
M578.869995,533.588257 
	C584.239197,541.654419 601.156494,537.680603 604.542847,526.272522 
	C607.062866,517.783020 605.364197,508.991516 605.473389,499.822357 
	C597.068909,501.848816 589.568298,504.014740 583.265869,508.845032 
	C574.789429,515.341492 573.181946,524.054504 578.869995,533.588257 
z"/>
<path fill="#000000" opacity="1.000000" stroke="none" 
	d="
M467.369873,687.439453 
	C452.311035,656.210876 469.043884,623.573059 502.923676,618.964539 
	C529.099976,615.403870 552.039978,631.877991 554.561646,659.402893 
	C557.248901,688.734741 534.133667,710.756165 507.854828,710.480103 
	C490.031555,710.292847 476.292664,703.673035 467.369873,687.439453 
M517.651245,631.789246 
	C515.259521,629.933289 512.785339,628.434021 509.576172,628.285034 
	C500.695862,627.872559 494.643616,631.971252 491.147644,641.280273 
	C486.986755,652.359924 487.702362,663.859680 488.880066,675.279724 
	C489.511810,681.405579 491.276093,687.382324 494.985626,692.500427 
	C497.961884,696.606812 501.329041,700.265442 506.896179,700.678040 
	C515.688538,701.329712 520.571838,698.496948 524.051392,690.121887 
	C529.114990,677.934021 529.590820,665.284241 527.175598,652.444763 
	C525.778992,645.020081 523.756226,637.852966 517.651245,631.789246 
z"/>
<path fill="#000000" opacity="1.000000" stroke="none" 
	d="
M748.589355,619.900940 
	C764.511230,625.714417 773.379761,637.845764 773.409729,652.926208 
	C773.418823,657.521973 772.023315,659.533447 767.082825,659.447327 
	C753.094910,659.203308 739.100037,659.350220 725.107910,659.377869 
	C723.154358,659.381714 721.122375,659.019592 719.017273,660.175964 
	C719.176025,665.630737 719.034241,671.055664 721.002258,676.319214 
	C727.104187,692.639099 745.368347,698.217041 759.977600,688.108093 
	C761.884888,686.788330 763.575317,685.152649 765.350769,683.645264 
	C767.035034,682.215271 768.495239,679.427551 771.114075,681.588135 
	C773.210754,683.317871 772.638672,685.920410 771.413757,688.017578 
	C765.084717,698.853271 756.181396,706.785217 743.692505,709.148682 
	C719.644836,713.699646 700.028931,700.695312 695.238159,676.870605 
	C689.735352,649.505554 705.410461,624.245728 731.857605,619.089478 
	C737.329529,618.022644 742.785339,618.614746 748.589355,619.900940 
M749.976074,643.396851 
	C749.565002,641.791016 749.253418,640.151611 748.724670,638.585449 
	C746.914490,633.223450 743.855713,629.099243 737.757446,628.368347 
	C730.931580,627.550293 726.338806,630.846558 723.106262,636.545898 
	C721.358215,639.627930 720.758911,643.066589 719.823425,646.420288 
	C718.928284,649.629333 720.057983,650.709839 723.152283,650.686401 
	C730.302185,650.632202 737.452820,650.691772 744.603149,650.683350 
	C750.995972,650.675842 751.035950,650.616699 749.976074,643.396851 
z"/>
<path fill="#000000" opacity="1.000000" stroke="none" 
	d="
M423.644196,666.999878 
	C423.645020,644.021057 423.658386,621.542297 423.640350,599.063477 
	C423.634827,592.170044 422.558228,590.646057 416.085754,588.693115 
	C414.066193,588.083740 412.072540,587.661255 412.233521,585.019470 
	C412.377502,582.657043 414.113953,581.398438 416.141663,581.047913 
	C425.334717,579.458862 434.241791,576.871094 443.101135,574.001282 
	C446.635223,572.856506 448.392456,574.694519 448.351288,578.415039 
	C448.277588,585.074646 448.314606,591.735474 448.316528,598.395813 
	C448.325287,628.867065 448.329651,659.338318 448.354767,689.809570 
	C448.361389,697.846497 449.046326,698.940491 456.339142,701.419128 
	C458.345978,702.101257 459.630280,702.889099 459.458710,705.152222 
	C459.260315,707.768250 457.526276,708.363953 455.288727,708.359863 
	C442.800598,708.337097 430.312439,708.330200 417.824310,708.313110 
	C415.863159,708.310425 414.104187,707.960144 413.803558,705.556702 
	C413.571350,703.700012 414.101501,702.091675 416.095428,701.713684 
	C423.143463,700.377563 423.435913,694.851685 423.589661,689.477844 
	C423.799103,682.157288 423.643646,674.826416 423.644196,666.999878 
z"/>
<path fill="#000000" opacity="1.000000" stroke="none" 
	d="
M896.572388,684.560974 
	C892.895813,679.947693 888.059387,677.662903 883.184998,675.496033 
	C877.858582,673.128357 872.519104,670.807373 867.631836,667.585144 
	C857.649292,661.003723 851.876343,652.080017 853.876648,639.829895 
	C855.715332,628.570129 864.031006,623.033203 874.171570,620.137512 
	C886.755554,616.544006 898.858459,619.282410 910.666565,623.960938 
	C912.333923,624.621521 913.076965,625.807434 913.409912,627.704468 
	C914.396484,633.325134 914.400085,638.963745 914.324524,644.622314 
	C914.299072,646.527283 914.080444,648.372986 911.895874,649.045898 
	C909.498230,649.784424 908.054443,648.353455 907.055481,646.510315 
	C905.312439,643.294495 903.958496,639.850586 902.042175,636.749023 
	C897.077332,628.713501 888.013367,625.468018 879.587585,628.453613 
	C871.783081,631.219177 870.216675,638.222229 876.210327,643.973511 
	C879.865234,647.480469 884.294434,649.789062 888.999817,651.590332 
	C895.390259,654.036804 901.368469,657.188843 907.133118,660.946106 
	C925.278503,672.772522 922.428772,696.953491 903.140503,706.049500 
	C887.114990,713.607056 871.050720,710.905273 855.271851,704.559753 
	C853.742920,703.944885 852.767578,702.878906 852.741638,701.193542 
	C852.634338,694.211304 851.149048,687.310547 851.618774,680.285278 
	C851.788208,677.750793 852.232056,675.538208 855.011047,674.904785 
	C858.110779,674.198120 859.040222,676.645569 859.883728,678.823120 
	C861.944153,684.142639 864.605042,689.122620 868.148438,693.586304 
	C873.800842,700.706848 882.668762,703.467285 890.416443,700.644531 
	C897.976257,697.890259 900.270752,692.206116 896.572388,684.560974 
z"/>
<path fill="#000000" opacity="1.000000" stroke="none" 
	d="
M846.164001,633.558594 
	C842.649048,643.533081 837.722168,645.828613 827.802124,640.916382 
	C820.999512,637.547791 818.062683,638.675476 812.609558,646.160645 
	C811.802795,647.268005 811.456848,648.489136 811.486450,649.901489 
	C811.772827,663.558350 811.951172,677.217773 812.289307,690.873230 
	C812.448364,697.296997 813.924011,699.041748 820.032715,700.672363 
	C822.552979,701.345154 825.184937,702.090210 824.971741,705.278198 
	C824.726868,708.939331 821.646667,708.336304 819.227661,708.342834 
	C807.394592,708.374939 795.561157,708.377808 783.728210,708.321960 
	C781.845215,708.313049 779.517822,708.889771 778.848145,706.099060 
	C778.135254,703.128296 779.922180,701.773560 782.345093,700.993469 
	C786.290649,699.723206 787.624634,696.891663 787.717590,692.974365 
	C788.121216,675.975220 788.005127,658.978821 787.631409,641.982422 
	C787.536011,637.645630 785.890869,634.650818 781.036438,634.180054 
	C778.934143,633.976135 777.162781,632.877991 777.256409,630.341370 
	C777.341797,628.030396 778.660583,626.777039 780.924927,626.311707 
	C789.728271,624.502563 798.282410,621.801514 806.819885,619.033447 
	C810.290405,617.908325 811.901611,619.623779 811.980042,622.962097 
	C812.077271,627.102173 812.003296,631.246216 812.003296,635.500427 
	C814.147949,632.536377 816.086121,629.471130 818.415588,626.739624 
	C821.129028,623.557983 824.345459,620.933777 828.428284,619.520813 
	C838.923950,615.888428 846.245422,621.465759 846.164001,633.558594 
z"/>
<path fill="#000000" opacity="1.000000" stroke="none" 
	d="
M803.258545,494.000153 
	C803.272888,507.165955 803.501343,519.836792 803.205017,532.495361 
	C803.073425,538.119873 805.164490,541.354309 810.549927,542.610535 
	C813.081909,543.201111 815.642090,543.947998 815.127380,547.351868 
	C814.589539,550.908936 811.671204,550.355042 809.239807,550.361938 
	C797.073914,550.396240 784.907776,550.357971 772.741882,550.400330 
	C770.040222,550.409729 767.596863,550.144348 767.242493,546.793152 
	C766.897583,543.531982 769.390137,543.090332 771.716858,542.585266 
	C776.995117,541.439453 778.503479,537.351624 778.549377,532.840454 
	C778.727417,515.343323 778.683472,497.843018 778.586060,480.344635 
	C778.558533,475.393188 776.020386,472.196106 770.920410,471.435364 
	C768.580078,471.086273 766.782532,470.325287 766.654846,467.504303 
	C766.512024,464.346649 768.748962,463.452789 771.051758,463.025482 
	C780.061890,461.353546 788.859741,458.966583 797.545349,456.049408 
	C801.841553,454.606476 803.320068,455.854889 803.334412,460.502045 
	C803.368408,471.501221 803.291260,482.500793 803.258545,494.000153 
z"/>
<path fill="#000000" opacity="1.000000" stroke="none" 
	d="
M774.696350,434.754730 
	C772.090149,425.447784 776.200134,417.275482 784.652283,414.359497 
	C792.689758,411.586639 801.357971,415.294098 804.683228,422.926819 
	C808.092407,430.752167 805.060181,439.589630 797.663696,443.385437 
	C789.688965,447.478027 780.566956,444.981110 775.873657,437.398041 
	C775.439209,436.696014 775.153198,435.902039 774.696350,434.754730 
z"/>
</svg>