<?xml version="1.0" encoding="UTF-8"?><svg id="uuid-7a7a27c3-0d23-41d6-ba4c-e681647f1fb0" xmlns="http://www.w3.org/2000/svg" viewBox="0 0 611.98 612"><g id="uuid-e2c69494-660e-4f04-b970-5db33c677ed9"><g id="uuid-fddf3032-cd9d-4d2e-9c51-420219e8e8ae"><path d="M606.2,578.7l-158-155.5c41.4-45,66.8-104.4,66.8-169.8C515,113.4,399.7,0,257.5,0S0,113.4,0,253.4s115.3,253.4,257.5,253.4c61.4,0,117.8-21.3,162.1-56.6l158.6,156.1c7.7,7.6,20.3,7.6,28,0s7.7-20,0-27.6Zm-348.7-110.9c-120.3,0-217.9-96-217.9-214.4S137.2,39,257.5,39s217.9,96,217.9,214.4-97.6,214.4-217.9,214.4Z" fill="#9b76bf"/></g></g></svg>